<svg xmlns="http://www.w3.org/2000/svg" viewBox="0 0 720 540" width="720" height="540" role="img" aria-label="zimni beh">
<defs><linearGradient id="sky38" x1="0" y1="0" x2="0" y2="1"><stop offset="0" stop-color="#8aa0bd"/><stop offset="1" stop-color="#c3d2e0"/></linearGradient><linearGradient id="gl38" x1="0" y1="0" x2="0" y2="1"><stop offset="0" stop-color="#eef5fd" stop-opacity="0.9"/><stop offset="1" stop-color="#eef5fd" stop-opacity="0"/></linearGradient></defs>
<rect width="720" height="540" fill="url(#sky38)"/>
<circle cx="518" cy="162" r="70" fill="#eef5fd" opacity="0.92"/>
<circle cx="518" cy="162" r="133" fill="#eef5fd" opacity="0.12"/>
<path d="M 0 243 L 0 263 L 120 294 L 240 286 L 360 215 L 480 196 L 600 203 L 720 262 L 720 540 L 0 540 Z" fill="#aec1d6"/>
<path d="M 0 313 L 0 319 L 120 355 L 240 294 L 360 264 L 480 333 L 600 358 L 720 310 L 720 540 L 0 540 Z" fill="#8f9fb8"/>
<path d="M 0 383 L 0 397 L 120 406 L 240 346 L 360 396 L 480 404 L 600 344 L 720 386 L 720 540 L 0 540 Z" fill="#6f7f96"/>
<path d="M 0 432 Q 360 418 720 432" fill="none" stroke="#F5F9FE" stroke-opacity="0.10" stroke-dasharray="2 6" stroke-width="1.5"/>
<path d="M 0 459 Q 360 445 720 459" fill="none" stroke="#F5F9FE" stroke-opacity="0.10" stroke-dasharray="2 6" stroke-width="1.5"/>
<path d="M 0 486 Q 360 472 720 486" fill="none" stroke="#F5F9FE" stroke-opacity="0.10" stroke-dasharray="2 6" stroke-width="1.5"/>
<path d="M -10 540 Q 252 486 396 421 T 730 324" fill="none" stroke="#F5F9FE" stroke-opacity="0.22" stroke-width="11" stroke-linecap="round"/>
<g transform="translate(201.60000000000002,356.40000000000003) scale(4.5)"><line x1="1" y1="-3" x2="-2.5" y2="7" stroke="#F5F9FE" stroke-width="3.4" stroke-linecap="round"/><line x1="0.5" y1="-1" x2="8" y2="-3" stroke="#F5F9FE" stroke-width="3.4" stroke-linecap="round"/><line x1="0.5" y1="-1" x2="-6" y2="1.5" stroke="#F5F9FE" stroke-width="3.4" stroke-linecap="round"/><path d="M -2.5 7 L 5 9 L 7 16" fill="none" stroke="#F5F9FE" stroke-width="3.4" stroke-linecap="round" stroke-linejoin="round"/><path d="M -2.5 7 L -7 11 L -5.5 17" fill="none" stroke="#F5F9FE" stroke-width="3.4" stroke-linecap="round" stroke-linejoin="round"/><circle cx="2.6" cy="-7.5" r="3.2" fill="#F5F9FE"/></g>
<rect x="0" y="514" width="720" height="26" fill="#0E2C5A" opacity="0.28"/>
<text x="14" y="531" font-family="Space Mono, monospace" font-size="12" fill="#F5F9FE" opacity="0.85">zimni beh</text>
</svg>