<svg xmlns="http://www.w3.org/2000/svg" viewBox="0 0 760 620" width="760" height="620" fill="none" aria-hidden="true">
<defs><linearGradient id="hg" x1="0" y1="0" x2="1" y2="1"><stop offset="0" stop-color="#1E4C86"/><stop offset="1" stop-color="#0E2C5A"/></linearGradient><radialGradient id="glow" cx="72%" cy="24%" r="60%"><stop offset="0" stop-color="#2E9BE6" stop-opacity="0.16"/><stop offset="1" stop-color="#2E9BE6" stop-opacity="0"/></radialGradient><pattern id="dots" width="26" height="26" patternUnits="userSpaceOnUse"><circle cx="2" cy="2" r="1.4" fill="#A9C2E0" fill-opacity="0.16"/></pattern></defs>
<rect width="760" height="620" rx="26" fill="url(#hg)"/>
<rect width="760" height="620" rx="26" fill="url(#dots)"/>
<rect width="760" height="620" rx="26" fill="url(#glow)"/>
<path d="M 70 540 C 150 525 185 445 255 430 S 360 470 425 410 S 480 315 560 305 S 665 250 700 160" stroke="#2E9BE6" stroke-width="5" stroke-linecap="round" stroke-dasharray="0.1 13" opacity="0.95"/>
<circle cx="70" cy="540" r="8" fill="#0E2C5A" stroke="#5AB0EE" stroke-width="3"/>
<text x="84" y="544" font-family="Space Mono, monospace" font-size="14" fill="#F5F9FE" opacity="0.9">START</text>
<circle cx="255" cy="430" r="8" fill="#0E2C5A" stroke="#F5F9FE" stroke-width="3"/>
<text x="269" y="434" font-family="Space Mono, monospace" font-size="14" fill="#F5F9FE" opacity="0.9">3 km</text>
<circle cx="425" cy="410" r="8" fill="#0E2C5A" stroke="#F5F9FE" stroke-width="3"/>
<text x="439" y="414" font-family="Space Mono, monospace" font-size="14" fill="#F5F9FE" opacity="0.9">6 km</text>
<circle cx="560" cy="305" r="8" fill="#0E2C5A" stroke="#F5F9FE" stroke-width="3"/>
<text x="574" y="309" font-family="Space Mono, monospace" font-size="14" fill="#F5F9FE" opacity="0.9">9 km</text>
<circle cx="700" cy="160" r="8" fill="#0E2C5A" stroke="#2E9BE6" stroke-width="3"/>
<text x="714" y="164" font-family="Space Mono, monospace" font-size="14" fill="#F5F9FE" opacity="0.9">CÍL</text>
<g opacity="0.35"><g transform="translate(396,380) scale(2.0)"><line x1="1" y1="-3" x2="-2.5" y2="7" stroke="#0E2C5A" stroke-width="3.4" stroke-linecap="round"/><line x1="0.5" y1="-1" x2="8" y2="-3" stroke="#0E2C5A" stroke-width="3.4" stroke-linecap="round"/><line x1="0.5" y1="-1" x2="-6" y2="1.5" stroke="#0E2C5A" stroke-width="3.4" stroke-linecap="round"/><path d="M -2.5 7 L 5 9 L 7 16" fill="none" stroke="#0E2C5A" stroke-width="3.4" stroke-linecap="round" stroke-linejoin="round"/><path d="M -2.5 7 L -7 11 L -5.5 17" fill="none" stroke="#0E2C5A" stroke-width="3.4" stroke-linecap="round" stroke-linejoin="round"/><circle cx="2.6" cy="-7.5" r="3.2" fill="#0E2C5A"/></g></g>
<g transform="translate(402,374) scale(2.2)"><line x1="1" y1="-3" x2="-2.5" y2="7" stroke="#2E9BE6" stroke-width="3.4" stroke-linecap="round"/><line x1="0.5" y1="-1" x2="8" y2="-3" stroke="#2E9BE6" stroke-width="3.4" stroke-linecap="round"/><line x1="0.5" y1="-1" x2="-6" y2="1.5" stroke="#2E9BE6" stroke-width="3.4" stroke-linecap="round"/><path d="M -2.5 7 L 5 9 L 7 16" fill="none" stroke="#2E9BE6" stroke-width="3.4" stroke-linecap="round" stroke-linejoin="round"/><path d="M -2.5 7 L -7 11 L -5.5 17" fill="none" stroke="#2E9BE6" stroke-width="3.4" stroke-linecap="round" stroke-linejoin="round"/><circle cx="2.6" cy="-7.5" r="3.2" fill="#2E9BE6"/></g>
</svg>