<svg xmlns="http://www.w3.org/2000/svg" viewBox="0 0 49 49" width="480" height="480" role="img">
<rect width="49" height="49" fill="#fff"/>
<g fill="#1877F2"><rect x="4" y="4" width="1.02" height="1.02"/><rect x="5" y="4" width="1.02" height="1.02"/><rect x="6" y="4" width="1.02" height="1.02"/><rect x="7" y="4" width="1.02" height="1.02"/><rect x="8" y="4" width="1.02" height="1.02"/><rect x="9" y="4" width="1.02" height="1.02"/><rect x="10" y="4" width="1.02" height="1.02"/><rect x="12" y="4" width="1.02" height="1.02"/><rect x="23" y="4" width="1.02" height="1.02"/><rect x="25" y="4" width="1.02" height="1.02"/><rect x="26" y="4" width="1.02" height="1.02"/><rect x="28" y="4" width="1.02" height="1.02"/><rect x="29" y="4" width="1.02" height="1.02"/><rect x="30" y="4" width="1.02" height="1.02"/><rect x="35" y="4" width="1.02" height="1.02"/><rect x="38" y="4" width="1.02" height="1.02"/><rect x="39" y="4" width="1.02" height="1.02"/><rect x="40" y="4" width="1.02" height="1.02"/><rect x="41" y="4" width="1.02" height="1.02"/><rect x="42" y="4" width="1.02" height="1.02"/><rect x="43" y="4" width="1.02" height="1.02"/><rect x="44" y="4" width="1.02" height="1.02"/><rect x="4" y="5" width="1.02" height="1.02"/><rect x="10" y="5" width="1.02" height="1.02"/><rect x="12" y="5" width="1.02" height="1.02"/><rect x="13" y="5" width="1.02" height="1.02"/><rect x="14" y="5" width="1.02" height="1.02"/><rect x="18" y="5" width="1.02" height="1.02"/><rect x="22" y="5" width="1.02" height="1.02"/><rect x="23" y="5" width="1.02" height="1.02"/><rect x="27" y="5" width="1.02" height="1.02"/><rect x="28" y="5" width="1.02" height="1.02"/><rect x="29" y="5" width="1.02" height="1.02"/><rect x="30" y="5" width="1.02" height="1.02"/><rect x="31" y="5" width="1.02" height="1.02"/><rect x="32" y="5" width="1.02" height="1.02"/><rect x="34" y="5" width="1.02" height="1.02"/><rect x="38" y="5" width="1.02" height="1.02"/><rect x="44" y="5" width="1.02" height="1.02"/><rect x="4" y="6" width="1.02" height="1.02"/><rect x="6" y="6" width="1.02" height="1.02"/><rect x="7" y="6" width="1.02" height="1.02"/><rect x="8" y="6" width="1.02" height="1.02"/><rect x="10" y="6" width="1.02" height="1.02"/><rect x="12" y="6" width="1.02" height="1.02"/><rect x="14" y="6" width="1.02" height="1.02"/><rect x="16" y="6" width="1.02" height="1.02"/><rect x="17" y="6" width="1.02" height="1.02"/><rect x="18" y="6" width="1.02" height="1.02"/><rect x="19" y="6" width="1.02" height="1.02"/><rect x="20" y="6" width="1.02" height="1.02"/><rect x="21" y="6" width="1.02" height="1.02"/><rect x="26" y="6" width="1.02" height="1.02"/><rect x="29" y="6" width="1.02" height="1.02"/><rect x="38" y="6" width="1.02" height="1.02"/><rect x="40" y="6" width="1.02" height="1.02"/><rect x="41" y="6" width="1.02" height="1.02"/><rect x="42" y="6" width="1.02" height="1.02"/><rect x="44" y="6" width="1.02" height="1.02"/><rect x="4" y="7" width="1.02" height="1.02"/><rect x="6" y="7" width="1.02" height="1.02"/><rect x="7" y="7" width="1.02" height="1.02"/><rect x="8" y="7" width="1.02" height="1.02"/><rect x="10" y="7" width="1.02" height="1.02"/><rect x="15" y="7" width="1.02" height="1.02"/><rect x="16" y="7" width="1.02" height="1.02"/><rect x="21" y="7" width="1.02" height="1.02"/><rect x="26" y="7" width="1.02" height="1.02"/><rect x="30" y="7" width="1.02" height="1.02"/><rect x="31" y="7" width="1.02" height="1.02"/><rect x="32" y="7" width="1.02" height="1.02"/><rect x="34" y="7" width="1.02" height="1.02"/><rect x="35" y="7" width="1.02" height="1.02"/><rect x="38" y="7" width="1.02" height="1.02"/><rect x="40" y="7" width="1.02" height="1.02"/><rect x="41" y="7" width="1.02" height="1.02"/><rect x="42" y="7" width="1.02" height="1.02"/><rect x="44" y="7" width="1.02" height="1.02"/><rect x="4" y="8" width="1.02" height="1.02"/><rect x="6" y="8" width="1.02" height="1.02"/><rect x="7" y="8" width="1.02" height="1.02"/><rect x="8" y="8" width="1.02" height="1.02"/><rect x="10" y="8" width="1.02" height="1.02"/><rect x="13" y="8" width="1.02" height="1.02"/><rect x="14" y="8" width="1.02" height="1.02"/><rect x="15" y="8" width="1.02" height="1.02"/><rect x="20" y="8" width="1.02" height="1.02"/><rect x="22" y="8" width="1.02" height="1.02"/><rect x="23" y="8" width="1.02" height="1.02"/><rect x="27" y="8" width="1.02" height="1.02"/><rect x="29" y="8" width="1.02" height="1.02"/><rect x="32" y="8" width="1.02" height="1.02"/><rect x="35" y="8" width="1.02" height="1.02"/><rect x="36" y="8" width="1.02" height="1.02"/><rect x="38" y="8" width="1.02" height="1.02"/><rect x="40" y="8" width="1.02" height="1.02"/><rect x="41" y="8" width="1.02" height="1.02"/><rect x="42" y="8" width="1.02" height="1.02"/><rect x="44" y="8" width="1.02" height="1.02"/><rect x="4" y="9" width="1.02" height="1.02"/><rect x="10" y="9" width="1.02" height="1.02"/><rect x="12" y="9" width="1.02" height="1.02"/><rect x="14" y="9" width="1.02" height="1.02"/><rect x="15" y="9" width="1.02" height="1.02"/><rect x="16" y="9" width="1.02" height="1.02"/><rect x="18" y="9" width="1.02" height="1.02"/><rect x="20" y="9" width="1.02" height="1.02"/><rect x="21" y="9" width="1.02" height="1.02"/><rect x="23" y="9" width="1.02" height="1.02"/><rect x="25" y="9" width="1.02" height="1.02"/><rect x="26" y="9" width="1.02" height="1.02"/><rect x="27" y="9" width="1.02" height="1.02"/><rect x="30" y="9" width="1.02" height="1.02"/><rect x="31" y="9" width="1.02" height="1.02"/><rect x="32" y="9" width="1.02" height="1.02"/><rect x="33" y="9" width="1.02" height="1.02"/><rect x="36" y="9" width="1.02" height="1.02"/><rect x="38" y="9" width="1.02" height="1.02"/><rect x="44" y="9" width="1.02" height="1.02"/><rect x="4" y="10" width="1.02" height="1.02"/><rect x="5" y="10" width="1.02" height="1.02"/><rect x="6" y="10" width="1.02" height="1.02"/><rect x="7" y="10" width="1.02" height="1.02"/><rect x="8" y="10" width="1.02" height="1.02"/><rect x="9" y="10" width="1.02" height="1.02"/><rect x="10" y="10" width="1.02" height="1.02"/><rect x="12" y="10" width="1.02" height="1.02"/><rect x="14" y="10" width="1.02" height="1.02"/><rect x="16" y="10" width="1.02" height="1.02"/><rect x="18" y="10" width="1.02" height="1.02"/><rect x="20" y="10" width="1.02" height="1.02"/><rect x="22" y="10" width="1.02" height="1.02"/><rect x="24" y="10" width="1.02" height="1.02"/><rect x="26" y="10" width="1.02" height="1.02"/><rect x="28" y="10" width="1.02" height="1.02"/><rect x="30" y="10" width="1.02" height="1.02"/><rect x="32" y="10" width="1.02" height="1.02"/><rect x="34" y="10" width="1.02" height="1.02"/><rect x="36" y="10" width="1.02" height="1.02"/><rect x="38" y="10" width="1.02" height="1.02"/><rect x="39" y="10" width="1.02" height="1.02"/><rect x="40" y="10" width="1.02" height="1.02"/><rect x="41" y="10" width="1.02" height="1.02"/><rect x="42" y="10" width="1.02" height="1.02"/><rect x="43" y="10" width="1.02" height="1.02"/><rect x="44" y="10" width="1.02" height="1.02"/><rect x="12" y="11" width="1.02" height="1.02"/><rect x="13" y="11" width="1.02" height="1.02"/><rect x="17" y="11" width="1.02" height="1.02"/><rect x="18" y="11" width="1.02" height="1.02"/><rect x="19" y="11" width="1.02" height="1.02"/><rect x="20" y="11" width="1.02" height="1.02"/><rect x="22" y="11" width="1.02" height="1.02"/><rect x="23" y="11" width="1.02" height="1.02"/><rect x="24" y="11" width="1.02" height="1.02"/><rect x="27" y="11" width="1.02" height="1.02"/><rect x="28" y="11" width="1.02" height="1.02"/><rect x="29" y="11" width="1.02" height="1.02"/><rect x="30" y="11" width="1.02" height="1.02"/><rect x="32" y="11" width="1.02" height="1.02"/><rect x="35" y="11" width="1.02" height="1.02"/><rect x="36" y="11" width="1.02" height="1.02"/><rect x="6" y="12" width="1.02" height="1.02"/><rect x="7" y="12" width="1.02" height="1.02"/><rect x="8" y="12" width="1.02" height="1.02"/><rect x="10" y="12" width="1.02" height="1.02"/><rect x="12" y="12" width="1.02" height="1.02"/><rect x="13" y="12" width="1.02" height="1.02"/><rect x="14" y="12" width="1.02" height="1.02"/><rect x="16" y="12" width="1.02" height="1.02"/><rect x="18" y="12" width="1.02" height="1.02"/><rect x="21" y="12" width="1.02" height="1.02"/><rect x="22" y="12" width="1.02" height="1.02"/><rect x="26" y="12" width="1.02" height="1.02"/><rect x="27" y="12" width="1.02" height="1.02"/><rect x="28" y="12" width="1.02" height="1.02"/><rect x="33" y="12" width="1.02" height="1.02"/><rect x="35" y="12" width="1.02" height="1.02"/><rect x="36" y="12" width="1.02" height="1.02"/><rect x="37" y="12" width="1.02" height="1.02"/><rect x="38" y="12" width="1.02" height="1.02"/><rect x="39" y="12" width="1.02" height="1.02"/><rect x="42" y="12" width="1.02" height="1.02"/><rect x="43" y="12" width="1.02" height="1.02"/><rect x="44" y="12" width="1.02" height="1.02"/><rect x="5" y="13" width="1.02" height="1.02"/><rect x="6" y="13" width="1.02" height="1.02"/><rect x="8" y="13" width="1.02" height="1.02"/><rect x="9" y="13" width="1.02" height="1.02"/><rect x="11" y="13" width="1.02" height="1.02"/><rect x="12" y="13" width="1.02" height="1.02"/><rect x="14" y="13" width="1.02" height="1.02"/><rect x="17" y="13" width="1.02" height="1.02"/><rect x="21" y="13" width="1.02" height="1.02"/><rect x="22" y="13" width="1.02" height="1.02"/><rect x="24" y="13" width="1.02" height="1.02"/><rect x="26" y="13" width="1.02" height="1.02"/><rect x="30" y="13" width="1.02" height="1.02"/><rect x="32" y="13" width="1.02" height="1.02"/><rect x="33" y="13" width="1.02" height="1.02"/><rect x="35" y="13" width="1.02" height="1.02"/><rect x="36" y="13" width="1.02" height="1.02"/><rect x="38" y="13" width="1.02" height="1.02"/><rect x="40" y="13" width="1.02" height="1.02"/><rect x="42" y="13" width="1.02" height="1.02"/><rect x="44" y="13" width="1.02" height="1.02"/><rect x="4" y="14" width="1.02" height="1.02"/><rect x="7" y="14" width="1.02" height="1.02"/><rect x="8" y="14" width="1.02" height="1.02"/><rect x="10" y="14" width="1.02" height="1.02"/><rect x="11" y="14" width="1.02" height="1.02"/><rect x="12" y="14" width="1.02" height="1.02"/><rect x="13" y="14" width="1.02" height="1.02"/><rect x="15" y="14" width="1.02" height="1.02"/><rect x="16" y="14" width="1.02" height="1.02"/><rect x="19" y="14" width="1.02" height="1.02"/><rect x="20" y="14" width="1.02" height="1.02"/><rect x="23" y="14" width="1.02" height="1.02"/><rect x="25" y="14" width="1.02" height="1.02"/><rect x="27" y="14" width="1.02" height="1.02"/><rect x="28" y="14" width="1.02" height="1.02"/><rect x="29" y="14" width="1.02" height="1.02"/><rect x="31" y="14" width="1.02" height="1.02"/><rect x="36" y="14" width="1.02" height="1.02"/><rect x="38" y="14" width="1.02" height="1.02"/><rect x="39" y="14" width="1.02" height="1.02"/><rect x="43" y="14" width="1.02" height="1.02"/><rect x="8" y="15" width="1.02" height="1.02"/><rect x="12" y="15" width="1.02" height="1.02"/><rect x="13" y="15" width="1.02" height="1.02"/><rect x="14" y="15" width="1.02" height="1.02"/><rect x="17" y="15" width="1.02" height="1.02"/><rect x="18" y="15" width="1.02" height="1.02"/><rect x="22" y="15" width="1.02" height="1.02"/><rect x="26" y="15" width="1.02" height="1.02"/><rect x="29" y="15" width="1.02" height="1.02"/><rect x="32" y="15" width="1.02" height="1.02"/><rect x="35" y="15" width="1.02" height="1.02"/><rect x="36" y="15" width="1.02" height="1.02"/><rect x="38" y="15" width="1.02" height="1.02"/><rect x="40" y="15" width="1.02" height="1.02"/><rect x="41" y="15" width="1.02" height="1.02"/><rect x="43" y="15" width="1.02" height="1.02"/><rect x="44" y="15" width="1.02" height="1.02"/><rect x="6" y="16" width="1.02" height="1.02"/><rect x="8" y="16" width="1.02" height="1.02"/><rect x="9" y="16" width="1.02" height="1.02"/><rect x="10" y="16" width="1.02" height="1.02"/><rect x="11" y="16" width="1.02" height="1.02"/><rect x="14" y="16" width="1.02" height="1.02"/><rect x="15" y="16" width="1.02" height="1.02"/><rect x="18" y="16" width="1.02" height="1.02"/><rect x="19" y="16" width="1.02" height="1.02"/><rect x="22" y="16" width="1.02" height="1.02"/><rect x="25" y="16" width="1.02" height="1.02"/><rect x="26" y="16" width="1.02" height="1.02"/><rect x="27" y="16" width="1.02" height="1.02"/><rect x="29" y="16" width="1.02" height="1.02"/><rect x="31" y="16" width="1.02" height="1.02"/><rect x="32" y="16" width="1.02" height="1.02"/><rect x="33" y="16" width="1.02" height="1.02"/><rect x="34" y="16" width="1.02" height="1.02"/><rect x="35" y="16" width="1.02" height="1.02"/><rect x="37" y="16" width="1.02" height="1.02"/><rect x="41" y="16" width="1.02" height="1.02"/><rect x="42" y="16" width="1.02" height="1.02"/><rect x="4" y="17" width="1.02" height="1.02"/><rect x="5" y="17" width="1.02" height="1.02"/><rect x="6" y="17" width="1.02" height="1.02"/><rect x="7" y="17" width="1.02" height="1.02"/><rect x="8" y="17" width="1.02" height="1.02"/><rect x="11" y="17" width="1.02" height="1.02"/><rect x="13" y="17" width="1.02" height="1.02"/><rect x="14" y="17" width="1.02" height="1.02"/><rect x="17" y="17" width="1.02" height="1.02"/><rect x="18" y="17" width="1.02" height="1.02"/><rect x="19" y="17" width="1.02" height="1.02"/><rect x="22" y="17" width="1.02" height="1.02"/><rect x="27" y="17" width="1.02" height="1.02"/><rect x="30" y="17" width="1.02" height="1.02"/><rect x="31" y="17" width="1.02" height="1.02"/><rect x="34" y="17" width="1.02" height="1.02"/><rect x="36" y="17" width="1.02" height="1.02"/><rect x="37" y="17" width="1.02" height="1.02"/><rect x="39" y="17" width="1.02" height="1.02"/><rect x="40" y="17" width="1.02" height="1.02"/><rect x="41" y="17" width="1.02" height="1.02"/><rect x="44" y="17" width="1.02" height="1.02"/><rect x="4" y="18" width="1.02" height="1.02"/><rect x="5" y="18" width="1.02" height="1.02"/><rect x="6" y="18" width="1.02" height="1.02"/><rect x="7" y="18" width="1.02" height="1.02"/><rect x="9" y="18" width="1.02" height="1.02"/><rect x="10" y="18" width="1.02" height="1.02"/><rect x="11" y="18" width="1.02" height="1.02"/><rect x="13" y="18" width="1.02" height="1.02"/><rect x="14" y="18" width="1.02" height="1.02"/><rect x="16" y="18" width="1.02" height="1.02"/><rect x="19" y="18" width="1.02" height="1.02"/><rect x="21" y="18" width="1.02" height="1.02"/><rect x="23" y="18" width="1.02" height="1.02"/><rect x="24" y="18" width="1.02" height="1.02"/><rect x="25" y="18" width="1.02" height="1.02"/><rect x="26" y="18" width="1.02" height="1.02"/><rect x="27" y="18" width="1.02" height="1.02"/><rect x="28" y="18" width="1.02" height="1.02"/><rect x="31" y="18" width="1.02" height="1.02"/><rect x="32" y="18" width="1.02" height="1.02"/><rect x="34" y="18" width="1.02" height="1.02"/><rect x="35" y="18" width="1.02" height="1.02"/><rect x="37" y="18" width="1.02" height="1.02"/><rect x="39" y="18" width="1.02" height="1.02"/><rect x="41" y="18" width="1.02" height="1.02"/><rect x="5" y="19" width="1.02" height="1.02"/><rect x="7" y="19" width="1.02" height="1.02"/><rect x="11" y="19" width="1.02" height="1.02"/><rect x="15" y="19" width="1.02" height="1.02"/><rect x="16" y="19" width="1.02" height="1.02"/><rect x="18" y="19" width="1.02" height="1.02"/><rect x="19" y="19" width="1.02" height="1.02"/><rect x="20" y="19" width="1.02" height="1.02"/><rect x="22" y="19" width="1.02" height="1.02"/><rect x="26" y="19" width="1.02" height="1.02"/><rect x="28" y="19" width="1.02" height="1.02"/><rect x="29" y="19" width="1.02" height="1.02"/><rect x="30" y="19" width="1.02" height="1.02"/><rect x="31" y="19" width="1.02" height="1.02"/><rect x="35" y="19" width="1.02" height="1.02"/><rect x="36" y="19" width="1.02" height="1.02"/><rect x="38" y="19" width="1.02" height="1.02"/><rect x="39" y="19" width="1.02" height="1.02"/><rect x="41" y="19" width="1.02" height="1.02"/><rect x="43" y="19" width="1.02" height="1.02"/><rect x="5" y="20" width="1.02" height="1.02"/><rect x="6" y="20" width="1.02" height="1.02"/><rect x="7" y="20" width="1.02" height="1.02"/><rect x="9" y="20" width="1.02" height="1.02"/><rect x="10" y="20" width="1.02" height="1.02"/><rect x="12" y="20" width="1.02" height="1.02"/><rect x="14" y="20" width="1.02" height="1.02"/><rect x="19" y="20" width="1.02" height="1.02"/><rect x="29" y="20" width="1.02" height="1.02"/><rect x="30" y="20" width="1.02" height="1.02"/><rect x="31" y="20" width="1.02" height="1.02"/><rect x="32" y="20" width="1.02" height="1.02"/><rect x="33" y="20" width="1.02" height="1.02"/><rect x="34" y="20" width="1.02" height="1.02"/><rect x="35" y="20" width="1.02" height="1.02"/><rect x="36" y="20" width="1.02" height="1.02"/><rect x="37" y="20" width="1.02" height="1.02"/><rect x="39" y="20" width="1.02" height="1.02"/><rect x="42" y="20" width="1.02" height="1.02"/><rect x="43" y="20" width="1.02" height="1.02"/><rect x="4" y="21" width="1.02" height="1.02"/><rect x="6" y="21" width="1.02" height="1.02"/><rect x="8" y="21" width="1.02" height="1.02"/><rect x="9" y="21" width="1.02" height="1.02"/><rect x="13" y="21" width="1.02" height="1.02"/><rect x="15" y="21" width="1.02" height="1.02"/><rect x="18" y="21" width="1.02" height="1.02"/><rect x="19" y="21" width="1.02" height="1.02"/><rect x="29" y="21" width="1.02" height="1.02"/><rect x="30" y="21" width="1.02" height="1.02"/><rect x="33" y="21" width="1.02" height="1.02"/><rect x="35" y="21" width="1.02" height="1.02"/><rect x="38" y="21" width="1.02" height="1.02"/><rect x="39" y="21" width="1.02" height="1.02"/><rect x="40" y="21" width="1.02" height="1.02"/><rect x="43" y="21" width="1.02" height="1.02"/><rect x="44" y="21" width="1.02" height="1.02"/><rect x="4" y="22" width="1.02" height="1.02"/><rect x="6" y="22" width="1.02" height="1.02"/><rect x="7" y="22" width="1.02" height="1.02"/><rect x="9" y="22" width="1.02" height="1.02"/><rect x="10" y="22" width="1.02" height="1.02"/><rect x="12" y="22" width="1.02" height="1.02"/><rect x="13" y="22" width="1.02" height="1.02"/><rect x="14" y="22" width="1.02" height="1.02"/><rect x="17" y="22" width="1.02" height="1.02"/><rect x="19" y="22" width="1.02" height="1.02"/><rect x="29" y="22" width="1.02" height="1.02"/><rect x="31" y="22" width="1.02" height="1.02"/><rect x="33" y="22" width="1.02" height="1.02"/><rect x="37" y="22" width="1.02" height="1.02"/><rect x="38" y="22" width="1.02" height="1.02"/><rect x="40" y="22" width="1.02" height="1.02"/><rect x="41" y="22" width="1.02" height="1.02"/><rect x="42" y="22" width="1.02" height="1.02"/><rect x="4" y="23" width="1.02" height="1.02"/><rect x="7" y="23" width="1.02" height="1.02"/><rect x="9" y="23" width="1.02" height="1.02"/><rect x="11" y="23" width="1.02" height="1.02"/><rect x="12" y="23" width="1.02" height="1.02"/><rect x="13" y="23" width="1.02" height="1.02"/><rect x="14" y="23" width="1.02" height="1.02"/><rect x="18" y="23" width="1.02" height="1.02"/><rect x="33" y="23" width="1.02" height="1.02"/><rect x="34" y="23" width="1.02" height="1.02"/><rect x="38" y="23" width="1.02" height="1.02"/><rect x="40" y="23" width="1.02" height="1.02"/><rect x="44" y="23" width="1.02" height="1.02"/><rect x="7" y="24" width="1.02" height="1.02"/><rect x="9" y="24" width="1.02" height="1.02"/><rect x="10" y="24" width="1.02" height="1.02"/><rect x="13" y="24" width="1.02" height="1.02"/><rect x="16" y="24" width="1.02" height="1.02"/><rect x="17" y="24" width="1.02" height="1.02"/><rect x="19" y="24" width="1.02" height="1.02"/><rect x="30" y="24" width="1.02" height="1.02"/><rect x="31" y="24" width="1.02" height="1.02"/><rect x="37" y="24" width="1.02" height="1.02"/><rect x="42" y="24" width="1.02" height="1.02"/><rect x="43" y="24" width="1.02" height="1.02"/><rect x="5" y="25" width="1.02" height="1.02"/><rect x="6" y="25" width="1.02" height="1.02"/><rect x="8" y="25" width="1.02" height="1.02"/><rect x="11" y="25" width="1.02" height="1.02"/><rect x="12" y="25" width="1.02" height="1.02"/><rect x="13" y="25" width="1.02" height="1.02"/><rect x="14" y="25" width="1.02" height="1.02"/><rect x="15" y="25" width="1.02" height="1.02"/><rect x="17" y="25" width="1.02" height="1.02"/><rect x="19" y="25" width="1.02" height="1.02"/><rect x="30" y="25" width="1.02" height="1.02"/><rect x="32" y="25" width="1.02" height="1.02"/><rect x="34" y="25" width="1.02" height="1.02"/><rect x="35" y="25" width="1.02" height="1.02"/><rect x="36" y="25" width="1.02" height="1.02"/><rect x="37" y="25" width="1.02" height="1.02"/><rect x="38" y="25" width="1.02" height="1.02"/><rect x="40" y="25" width="1.02" height="1.02"/><rect x="43" y="25" width="1.02" height="1.02"/><rect x="44" y="25" width="1.02" height="1.02"/><rect x="4" y="26" width="1.02" height="1.02"/><rect x="6" y="26" width="1.02" height="1.02"/><rect x="9" y="26" width="1.02" height="1.02"/><rect x="10" y="26" width="1.02" height="1.02"/><rect x="11" y="26" width="1.02" height="1.02"/><rect x="12" y="26" width="1.02" height="1.02"/><rect x="14" y="26" width="1.02" height="1.02"/><rect x="29" y="26" width="1.02" height="1.02"/><rect x="31" y="26" width="1.02" height="1.02"/><rect x="33" y="26" width="1.02" height="1.02"/><rect x="36" y="26" width="1.02" height="1.02"/><rect x="37" y="26" width="1.02" height="1.02"/><rect x="39" y="26" width="1.02" height="1.02"/><rect x="41" y="26" width="1.02" height="1.02"/><rect x="42" y="26" width="1.02" height="1.02"/><rect x="6" y="27" width="1.02" height="1.02"/><rect x="7" y="27" width="1.02" height="1.02"/><rect x="12" y="27" width="1.02" height="1.02"/><rect x="14" y="27" width="1.02" height="1.02"/><rect x="16" y="27" width="1.02" height="1.02"/><rect x="17" y="27" width="1.02" height="1.02"/><rect x="19" y="27" width="1.02" height="1.02"/><rect x="29" y="27" width="1.02" height="1.02"/><rect x="35" y="27" width="1.02" height="1.02"/><rect x="40" y="27" width="1.02" height="1.02"/><rect x="5" y="28" width="1.02" height="1.02"/><rect x="6" y="28" width="1.02" height="1.02"/><rect x="7" y="28" width="1.02" height="1.02"/><rect x="10" y="28" width="1.02" height="1.02"/><rect x="11" y="28" width="1.02" height="1.02"/><rect x="12" y="28" width="1.02" height="1.02"/><rect x="13" y="28" width="1.02" height="1.02"/><rect x="15" y="28" width="1.02" height="1.02"/><rect x="19" y="28" width="1.02" height="1.02"/><rect x="29" y="28" width="1.02" height="1.02"/><rect x="31" y="28" width="1.02" height="1.02"/><rect x="33" y="28" width="1.02" height="1.02"/><rect x="37" y="28" width="1.02" height="1.02"/><rect x="39" y="28" width="1.02" height="1.02"/><rect x="41" y="28" width="1.02" height="1.02"/><rect x="42" y="28" width="1.02" height="1.02"/><rect x="43" y="28" width="1.02" height="1.02"/><rect x="4" y="29" width="1.02" height="1.02"/><rect x="7" y="29" width="1.02" height="1.02"/><rect x="8" y="29" width="1.02" height="1.02"/><rect x="11" y="29" width="1.02" height="1.02"/><rect x="12" y="29" width="1.02" height="1.02"/><rect x="13" y="29" width="1.02" height="1.02"/><rect x="15" y="29" width="1.02" height="1.02"/><rect x="16" y="29" width="1.02" height="1.02"/><rect x="18" y="29" width="1.02" height="1.02"/><rect x="19" y="29" width="1.02" height="1.02"/><rect x="20" y="29" width="1.02" height="1.02"/><rect x="21" y="29" width="1.02" height="1.02"/><rect x="22" y="29" width="1.02" height="1.02"/><rect x="24" y="29" width="1.02" height="1.02"/><rect x="26" y="29" width="1.02" height="1.02"/><rect x="27" y="29" width="1.02" height="1.02"/><rect x="28" y="29" width="1.02" height="1.02"/><rect x="30" y="29" width="1.02" height="1.02"/><rect x="32" y="29" width="1.02" height="1.02"/><rect x="33" y="29" width="1.02" height="1.02"/><rect x="35" y="29" width="1.02" height="1.02"/><rect x="38" y="29" width="1.02" height="1.02"/><rect x="40" y="29" width="1.02" height="1.02"/><rect x="41" y="29" width="1.02" height="1.02"/><rect x="44" y="29" width="1.02" height="1.02"/><rect x="5" y="30" width="1.02" height="1.02"/><rect x="6" y="30" width="1.02" height="1.02"/><rect x="7" y="30" width="1.02" height="1.02"/><rect x="9" y="30" width="1.02" height="1.02"/><rect x="10" y="30" width="1.02" height="1.02"/><rect x="11" y="30" width="1.02" height="1.02"/><rect x="12" y="30" width="1.02" height="1.02"/><rect x="14" y="30" width="1.02" height="1.02"/><rect x="16" y="30" width="1.02" height="1.02"/><rect x="17" y="30" width="1.02" height="1.02"/><rect x="19" y="30" width="1.02" height="1.02"/><rect x="22" y="30" width="1.02" height="1.02"/><rect x="26" y="30" width="1.02" height="1.02"/><rect x="29" y="30" width="1.02" height="1.02"/><rect x="31" y="30" width="1.02" height="1.02"/><rect x="33" y="30" width="1.02" height="1.02"/><rect x="36" y="30" width="1.02" height="1.02"/><rect x="38" y="30" width="1.02" height="1.02"/><rect x="40" y="30" width="1.02" height="1.02"/><rect x="43" y="30" width="1.02" height="1.02"/><rect x="5" y="31" width="1.02" height="1.02"/><rect x="17" y="31" width="1.02" height="1.02"/><rect x="18" y="31" width="1.02" height="1.02"/><rect x="19" y="31" width="1.02" height="1.02"/><rect x="21" y="31" width="1.02" height="1.02"/><rect x="24" y="31" width="1.02" height="1.02"/><rect x="25" y="31" width="1.02" height="1.02"/><rect x="26" y="31" width="1.02" height="1.02"/><rect x="27" y="31" width="1.02" height="1.02"/><rect x="32" y="31" width="1.02" height="1.02"/><rect x="35" y="31" width="1.02" height="1.02"/><rect x="36" y="31" width="1.02" height="1.02"/><rect x="37" y="31" width="1.02" height="1.02"/><rect x="38" y="31" width="1.02" height="1.02"/><rect x="39" y="31" width="1.02" height="1.02"/><rect x="40" y="31" width="1.02" height="1.02"/><rect x="41" y="31" width="1.02" height="1.02"/><rect x="43" y="31" width="1.02" height="1.02"/><rect x="9" y="32" width="1.02" height="1.02"/><rect x="10" y="32" width="1.02" height="1.02"/><rect x="12" y="32" width="1.02" height="1.02"/><rect x="17" y="32" width="1.02" height="1.02"/><rect x="21" y="32" width="1.02" height="1.02"/><rect x="23" y="32" width="1.02" height="1.02"/><rect x="25" y="32" width="1.02" height="1.02"/><rect x="26" y="32" width="1.02" height="1.02"/><rect x="27" y="32" width="1.02" height="1.02"/><rect x="29" y="32" width="1.02" height="1.02"/><rect x="33" y="32" width="1.02" height="1.02"/><rect x="35" y="32" width="1.02" height="1.02"/><rect x="36" y="32" width="1.02" height="1.02"/><rect x="38" y="32" width="1.02" height="1.02"/><rect x="41" y="32" width="1.02" height="1.02"/><rect x="42" y="32" width="1.02" height="1.02"/><rect x="4" y="33" width="1.02" height="1.02"/><rect x="6" y="33" width="1.02" height="1.02"/><rect x="7" y="33" width="1.02" height="1.02"/><rect x="9" y="33" width="1.02" height="1.02"/><rect x="11" y="33" width="1.02" height="1.02"/><rect x="12" y="33" width="1.02" height="1.02"/><rect x="14" y="33" width="1.02" height="1.02"/><rect x="16" y="33" width="1.02" height="1.02"/><rect x="22" y="33" width="1.02" height="1.02"/><rect x="23" y="33" width="1.02" height="1.02"/><rect x="27" y="33" width="1.02" height="1.02"/><rect x="28" y="33" width="1.02" height="1.02"/><rect x="29" y="33" width="1.02" height="1.02"/><rect x="30" y="33" width="1.02" height="1.02"/><rect x="31" y="33" width="1.02" height="1.02"/><rect x="32" y="33" width="1.02" height="1.02"/><rect x="34" y="33" width="1.02" height="1.02"/><rect x="37" y="33" width="1.02" height="1.02"/><rect x="39" y="33" width="1.02" height="1.02"/><rect x="40" y="33" width="1.02" height="1.02"/><rect x="44" y="33" width="1.02" height="1.02"/><rect x="4" y="34" width="1.02" height="1.02"/><rect x="7" y="34" width="1.02" height="1.02"/><rect x="8" y="34" width="1.02" height="1.02"/><rect x="10" y="34" width="1.02" height="1.02"/><rect x="13" y="34" width="1.02" height="1.02"/><rect x="14" y="34" width="1.02" height="1.02"/><rect x="15" y="34" width="1.02" height="1.02"/><rect x="16" y="34" width="1.02" height="1.02"/><rect x="17" y="34" width="1.02" height="1.02"/><rect x="18" y="34" width="1.02" height="1.02"/><rect x="20" y="34" width="1.02" height="1.02"/><rect x="21" y="34" width="1.02" height="1.02"/><rect x="22" y="34" width="1.02" height="1.02"/><rect x="24" y="34" width="1.02" height="1.02"/><rect x="29" y="34" width="1.02" height="1.02"/><rect x="36" y="34" width="1.02" height="1.02"/><rect x="37" y="34" width="1.02" height="1.02"/><rect x="38" y="34" width="1.02" height="1.02"/><rect x="39" y="34" width="1.02" height="1.02"/><rect x="42" y="34" width="1.02" height="1.02"/><rect x="4" y="35" width="1.02" height="1.02"/><rect x="6" y="35" width="1.02" height="1.02"/><rect x="7" y="35" width="1.02" height="1.02"/><rect x="8" y="35" width="1.02" height="1.02"/><rect x="9" y="35" width="1.02" height="1.02"/><rect x="11" y="35" width="1.02" height="1.02"/><rect x="12" y="35" width="1.02" height="1.02"/><rect x="13" y="35" width="1.02" height="1.02"/><rect x="15" y="35" width="1.02" height="1.02"/><rect x="19" y="35" width="1.02" height="1.02"/><rect x="21" y="35" width="1.02" height="1.02"/><rect x="22" y="35" width="1.02" height="1.02"/><rect x="23" y="35" width="1.02" height="1.02"/><rect x="26" y="35" width="1.02" height="1.02"/><rect x="27" y="35" width="1.02" height="1.02"/><rect x="28" y="35" width="1.02" height="1.02"/><rect x="30" y="35" width="1.02" height="1.02"/><rect x="32" y="35" width="1.02" height="1.02"/><rect x="37" y="35" width="1.02" height="1.02"/><rect x="38" y="35" width="1.02" height="1.02"/><rect x="39" y="35" width="1.02" height="1.02"/><rect x="41" y="35" width="1.02" height="1.02"/><rect x="4" y="36" width="1.02" height="1.02"/><rect x="6" y="36" width="1.02" height="1.02"/><rect x="10" y="36" width="1.02" height="1.02"/><rect x="11" y="36" width="1.02" height="1.02"/><rect x="14" y="36" width="1.02" height="1.02"/><rect x="16" y="36" width="1.02" height="1.02"/><rect x="18" y="36" width="1.02" height="1.02"/><rect x="20" y="36" width="1.02" height="1.02"/><rect x="21" y="36" width="1.02" height="1.02"/><rect x="23" y="36" width="1.02" height="1.02"/><rect x="26" y="36" width="1.02" height="1.02"/><rect x="27" y="36" width="1.02" height="1.02"/><rect x="32" y="36" width="1.02" height="1.02"/><rect x="33" y="36" width="1.02" height="1.02"/><rect x="34" y="36" width="1.02" height="1.02"/><rect x="36" y="36" width="1.02" height="1.02"/><rect x="37" y="36" width="1.02" height="1.02"/><rect x="38" y="36" width="1.02" height="1.02"/><rect x="39" y="36" width="1.02" height="1.02"/><rect x="40" y="36" width="1.02" height="1.02"/><rect x="42" y="36" width="1.02" height="1.02"/><rect x="12" y="37" width="1.02" height="1.02"/><rect x="16" y="37" width="1.02" height="1.02"/><rect x="18" y="37" width="1.02" height="1.02"/><rect x="20" y="37" width="1.02" height="1.02"/><rect x="22" y="37" width="1.02" height="1.02"/><rect x="23" y="37" width="1.02" height="1.02"/><rect x="25" y="37" width="1.02" height="1.02"/><rect x="26" y="37" width="1.02" height="1.02"/><rect x="27" y="37" width="1.02" height="1.02"/><rect x="30" y="37" width="1.02" height="1.02"/><rect x="35" y="37" width="1.02" height="1.02"/><rect x="36" y="37" width="1.02" height="1.02"/><rect x="40" y="37" width="1.02" height="1.02"/><rect x="41" y="37" width="1.02" height="1.02"/><rect x="42" y="37" width="1.02" height="1.02"/><rect x="43" y="37" width="1.02" height="1.02"/><rect x="44" y="37" width="1.02" height="1.02"/><rect x="4" y="38" width="1.02" height="1.02"/><rect x="5" y="38" width="1.02" height="1.02"/><rect x="6" y="38" width="1.02" height="1.02"/><rect x="7" y="38" width="1.02" height="1.02"/><rect x="8" y="38" width="1.02" height="1.02"/><rect x="9" y="38" width="1.02" height="1.02"/><rect x="10" y="38" width="1.02" height="1.02"/><rect x="15" y="38" width="1.02" height="1.02"/><rect x="16" y="38" width="1.02" height="1.02"/><rect x="17" y="38" width="1.02" height="1.02"/><rect x="18" y="38" width="1.02" height="1.02"/><rect x="19" y="38" width="1.02" height="1.02"/><rect x="20" y="38" width="1.02" height="1.02"/><rect x="22" y="38" width="1.02" height="1.02"/><rect x="23" y="38" width="1.02" height="1.02"/><rect x="24" y="38" width="1.02" height="1.02"/><rect x="25" y="38" width="1.02" height="1.02"/><rect x="26" y="38" width="1.02" height="1.02"/><rect x="31" y="38" width="1.02" height="1.02"/><rect x="32" y="38" width="1.02" height="1.02"/><rect x="34" y="38" width="1.02" height="1.02"/><rect x="35" y="38" width="1.02" height="1.02"/><rect x="36" y="38" width="1.02" height="1.02"/><rect x="38" y="38" width="1.02" height="1.02"/><rect x="40" y="38" width="1.02" height="1.02"/><rect x="41" y="38" width="1.02" height="1.02"/><rect x="42" y="38" width="1.02" height="1.02"/><rect x="4" y="39" width="1.02" height="1.02"/><rect x="10" y="39" width="1.02" height="1.02"/><rect x="13" y="39" width="1.02" height="1.02"/><rect x="15" y="39" width="1.02" height="1.02"/><rect x="19" y="39" width="1.02" height="1.02"/><rect x="26" y="39" width="1.02" height="1.02"/><rect x="28" y="39" width="1.02" height="1.02"/><rect x="29" y="39" width="1.02" height="1.02"/><rect x="31" y="39" width="1.02" height="1.02"/><rect x="36" y="39" width="1.02" height="1.02"/><rect x="40" y="39" width="1.02" height="1.02"/><rect x="4" y="40" width="1.02" height="1.02"/><rect x="6" y="40" width="1.02" height="1.02"/><rect x="7" y="40" width="1.02" height="1.02"/><rect x="8" y="40" width="1.02" height="1.02"/><rect x="10" y="40" width="1.02" height="1.02"/><rect x="12" y="40" width="1.02" height="1.02"/><rect x="14" y="40" width="1.02" height="1.02"/><rect x="19" y="40" width="1.02" height="1.02"/><rect x="23" y="40" width="1.02" height="1.02"/><rect x="26" y="40" width="1.02" height="1.02"/><rect x="27" y="40" width="1.02" height="1.02"/><rect x="30" y="40" width="1.02" height="1.02"/><rect x="31" y="40" width="1.02" height="1.02"/><rect x="32" y="40" width="1.02" height="1.02"/><rect x="34" y="40" width="1.02" height="1.02"/><rect x="36" y="40" width="1.02" height="1.02"/><rect x="37" y="40" width="1.02" height="1.02"/><rect x="38" y="40" width="1.02" height="1.02"/><rect x="39" y="40" width="1.02" height="1.02"/><rect x="40" y="40" width="1.02" height="1.02"/><rect x="41" y="40" width="1.02" height="1.02"/><rect x="42" y="40" width="1.02" height="1.02"/><rect x="43" y="40" width="1.02" height="1.02"/><rect x="4" y="41" width="1.02" height="1.02"/><rect x="6" y="41" width="1.02" height="1.02"/><rect x="7" y="41" width="1.02" height="1.02"/><rect x="8" y="41" width="1.02" height="1.02"/><rect x="10" y="41" width="1.02" height="1.02"/><rect x="12" y="41" width="1.02" height="1.02"/><rect x="13" y="41" width="1.02" height="1.02"/><rect x="14" y="41" width="1.02" height="1.02"/><rect x="16" y="41" width="1.02" height="1.02"/><rect x="18" y="41" width="1.02" height="1.02"/><rect x="19" y="41" width="1.02" height="1.02"/><rect x="24" y="41" width="1.02" height="1.02"/><rect x="25" y="41" width="1.02" height="1.02"/><rect x="30" y="41" width="1.02" height="1.02"/><rect x="32" y="41" width="1.02" height="1.02"/><rect x="35" y="41" width="1.02" height="1.02"/><rect x="36" y="41" width="1.02" height="1.02"/><rect x="37" y="41" width="1.02" height="1.02"/><rect x="39" y="41" width="1.02" height="1.02"/><rect x="42" y="41" width="1.02" height="1.02"/><rect x="44" y="41" width="1.02" height="1.02"/><rect x="4" y="42" width="1.02" height="1.02"/><rect x="6" y="42" width="1.02" height="1.02"/><rect x="7" y="42" width="1.02" height="1.02"/><rect x="8" y="42" width="1.02" height="1.02"/><rect x="10" y="42" width="1.02" height="1.02"/><rect x="12" y="42" width="1.02" height="1.02"/><rect x="13" y="42" width="1.02" height="1.02"/><rect x="14" y="42" width="1.02" height="1.02"/><rect x="15" y="42" width="1.02" height="1.02"/><rect x="16" y="42" width="1.02" height="1.02"/><rect x="20" y="42" width="1.02" height="1.02"/><rect x="21" y="42" width="1.02" height="1.02"/><rect x="22" y="42" width="1.02" height="1.02"/><rect x="29" y="42" width="1.02" height="1.02"/><rect x="30" y="42" width="1.02" height="1.02"/><rect x="31" y="42" width="1.02" height="1.02"/><rect x="32" y="42" width="1.02" height="1.02"/><rect x="33" y="42" width="1.02" height="1.02"/><rect x="37" y="42" width="1.02" height="1.02"/><rect x="38" y="42" width="1.02" height="1.02"/><rect x="39" y="42" width="1.02" height="1.02"/><rect x="40" y="42" width="1.02" height="1.02"/><rect x="43" y="42" width="1.02" height="1.02"/><rect x="4" y="43" width="1.02" height="1.02"/><rect x="10" y="43" width="1.02" height="1.02"/><rect x="13" y="43" width="1.02" height="1.02"/><rect x="16" y="43" width="1.02" height="1.02"/><rect x="17" y="43" width="1.02" height="1.02"/><rect x="18" y="43" width="1.02" height="1.02"/><rect x="19" y="43" width="1.02" height="1.02"/><rect x="20" y="43" width="1.02" height="1.02"/><rect x="21" y="43" width="1.02" height="1.02"/><rect x="22" y="43" width="1.02" height="1.02"/><rect x="26" y="43" width="1.02" height="1.02"/><rect x="27" y="43" width="1.02" height="1.02"/><rect x="28" y="43" width="1.02" height="1.02"/><rect x="29" y="43" width="1.02" height="1.02"/><rect x="32" y="43" width="1.02" height="1.02"/><rect x="36" y="43" width="1.02" height="1.02"/><rect x="38" y="43" width="1.02" height="1.02"/><rect x="40" y="43" width="1.02" height="1.02"/><rect x="43" y="43" width="1.02" height="1.02"/><rect x="4" y="44" width="1.02" height="1.02"/><rect x="5" y="44" width="1.02" height="1.02"/><rect x="6" y="44" width="1.02" height="1.02"/><rect x="7" y="44" width="1.02" height="1.02"/><rect x="8" y="44" width="1.02" height="1.02"/><rect x="9" y="44" width="1.02" height="1.02"/><rect x="10" y="44" width="1.02" height="1.02"/><rect x="15" y="44" width="1.02" height="1.02"/><rect x="20" y="44" width="1.02" height="1.02"/><rect x="22" y="44" width="1.02" height="1.02"/><rect x="27" y="44" width="1.02" height="1.02"/><rect x="28" y="44" width="1.02" height="1.02"/><rect x="30" y="44" width="1.02" height="1.02"/><rect x="31" y="44" width="1.02" height="1.02"/><rect x="33" y="44" width="1.02" height="1.02"/><rect x="34" y="44" width="1.02" height="1.02"/><rect x="35" y="44" width="1.02" height="1.02"/><rect x="37" y="44" width="1.02" height="1.02"/><rect x="38" y="44" width="1.02" height="1.02"/><rect x="39" y="44" width="1.02" height="1.02"/><rect x="40" y="44" width="1.02" height="1.02"/><rect x="41" y="44" width="1.02" height="1.02"/><rect x="42" y="44" width="1.02" height="1.02"/></g>
<rect x="19.6" y="19.6" width="9.8" height="9.8" rx="1.2" fill="#fff"/>
<g transform="translate(20.45 20.45) scale(0.50625)" fill="#1877F2"><path d="M16 8.049c0-4.446-3.582-8.05-8-8.05C3.58 0-.002 3.603-.002 8.05c0 4.017 2.926 7.347 6.75 7.951v-5.625h-2.03V8.05H6.75V6.275c0-2.017 1.195-3.131 3.022-3.131.876 0 1.791.157 1.791.157v1.98h-1.009c-.993 0-1.303.621-1.303 1.258v1.51h2.218l-.354 2.326H9.25V16c3.824-.604 6.75-3.934 6.75-7.951"/></g>
</svg>