<svg xmlns="http://www.w3.org/2000/svg" viewBox="0 0 49 49" width="480" height="480" role="img">
<rect width="49" height="49" fill="#fff"/>
<g fill="#C13584"><rect x="4" y="4" width="1.02" height="1.02"/><rect x="5" y="4" width="1.02" height="1.02"/><rect x="6" y="4" width="1.02" height="1.02"/><rect x="7" y="4" width="1.02" height="1.02"/><rect x="8" y="4" width="1.02" height="1.02"/><rect x="9" y="4" width="1.02" height="1.02"/><rect x="10" y="4" width="1.02" height="1.02"/><rect x="12" y="4" width="1.02" height="1.02"/><rect x="15" y="4" width="1.02" height="1.02"/><rect x="16" y="4" width="1.02" height="1.02"/><rect x="19" y="4" width="1.02" height="1.02"/><rect x="21" y="4" width="1.02" height="1.02"/><rect x="23" y="4" width="1.02" height="1.02"/><rect x="26" y="4" width="1.02" height="1.02"/><rect x="30" y="4" width="1.02" height="1.02"/><rect x="31" y="4" width="1.02" height="1.02"/><rect x="35" y="4" width="1.02" height="1.02"/><rect x="38" y="4" width="1.02" height="1.02"/><rect x="39" y="4" width="1.02" height="1.02"/><rect x="40" y="4" width="1.02" height="1.02"/><rect x="41" y="4" width="1.02" height="1.02"/><rect x="42" y="4" width="1.02" height="1.02"/><rect x="43" y="4" width="1.02" height="1.02"/><rect x="44" y="4" width="1.02" height="1.02"/><rect x="4" y="5" width="1.02" height="1.02"/><rect x="10" y="5" width="1.02" height="1.02"/><rect x="13" y="5" width="1.02" height="1.02"/><rect x="14" y="5" width="1.02" height="1.02"/><rect x="15" y="5" width="1.02" height="1.02"/><rect x="17" y="5" width="1.02" height="1.02"/><rect x="18" y="5" width="1.02" height="1.02"/><rect x="19" y="5" width="1.02" height="1.02"/><rect x="20" y="5" width="1.02" height="1.02"/><rect x="21" y="5" width="1.02" height="1.02"/><rect x="23" y="5" width="1.02" height="1.02"/><rect x="24" y="5" width="1.02" height="1.02"/><rect x="26" y="5" width="1.02" height="1.02"/><rect x="28" y="5" width="1.02" height="1.02"/><rect x="31" y="5" width="1.02" height="1.02"/><rect x="35" y="5" width="1.02" height="1.02"/><rect x="38" y="5" width="1.02" height="1.02"/><rect x="44" y="5" width="1.02" height="1.02"/><rect x="4" y="6" width="1.02" height="1.02"/><rect x="6" y="6" width="1.02" height="1.02"/><rect x="7" y="6" width="1.02" height="1.02"/><rect x="8" y="6" width="1.02" height="1.02"/><rect x="10" y="6" width="1.02" height="1.02"/><rect x="14" y="6" width="1.02" height="1.02"/><rect x="19" y="6" width="1.02" height="1.02"/><rect x="20" y="6" width="1.02" height="1.02"/><rect x="21" y="6" width="1.02" height="1.02"/><rect x="28" y="6" width="1.02" height="1.02"/><rect x="30" y="6" width="1.02" height="1.02"/><rect x="31" y="6" width="1.02" height="1.02"/><rect x="34" y="6" width="1.02" height="1.02"/><rect x="36" y="6" width="1.02" height="1.02"/><rect x="38" y="6" width="1.02" height="1.02"/><rect x="40" y="6" width="1.02" height="1.02"/><rect x="41" y="6" width="1.02" height="1.02"/><rect x="42" y="6" width="1.02" height="1.02"/><rect x="44" y="6" width="1.02" height="1.02"/><rect x="4" y="7" width="1.02" height="1.02"/><rect x="6" y="7" width="1.02" height="1.02"/><rect x="7" y="7" width="1.02" height="1.02"/><rect x="8" y="7" width="1.02" height="1.02"/><rect x="10" y="7" width="1.02" height="1.02"/><rect x="12" y="7" width="1.02" height="1.02"/><rect x="14" y="7" width="1.02" height="1.02"/><rect x="16" y="7" width="1.02" height="1.02"/><rect x="21" y="7" width="1.02" height="1.02"/><rect x="22" y="7" width="1.02" height="1.02"/><rect x="23" y="7" width="1.02" height="1.02"/><rect x="24" y="7" width="1.02" height="1.02"/><rect x="26" y="7" width="1.02" height="1.02"/><rect x="27" y="7" width="1.02" height="1.02"/><rect x="29" y="7" width="1.02" height="1.02"/><rect x="31" y="7" width="1.02" height="1.02"/><rect x="32" y="7" width="1.02" height="1.02"/><rect x="34" y="7" width="1.02" height="1.02"/><rect x="38" y="7" width="1.02" height="1.02"/><rect x="40" y="7" width="1.02" height="1.02"/><rect x="41" y="7" width="1.02" height="1.02"/><rect x="42" y="7" width="1.02" height="1.02"/><rect x="44" y="7" width="1.02" height="1.02"/><rect x="4" y="8" width="1.02" height="1.02"/><rect x="6" y="8" width="1.02" height="1.02"/><rect x="7" y="8" width="1.02" height="1.02"/><rect x="8" y="8" width="1.02" height="1.02"/><rect x="10" y="8" width="1.02" height="1.02"/><rect x="13" y="8" width="1.02" height="1.02"/><rect x="18" y="8" width="1.02" height="1.02"/><rect x="19" y="8" width="1.02" height="1.02"/><rect x="21" y="8" width="1.02" height="1.02"/><rect x="22" y="8" width="1.02" height="1.02"/><rect x="24" y="8" width="1.02" height="1.02"/><rect x="25" y="8" width="1.02" height="1.02"/><rect x="28" y="8" width="1.02" height="1.02"/><rect x="30" y="8" width="1.02" height="1.02"/><rect x="31" y="8" width="1.02" height="1.02"/><rect x="34" y="8" width="1.02" height="1.02"/><rect x="35" y="8" width="1.02" height="1.02"/><rect x="38" y="8" width="1.02" height="1.02"/><rect x="40" y="8" width="1.02" height="1.02"/><rect x="41" y="8" width="1.02" height="1.02"/><rect x="42" y="8" width="1.02" height="1.02"/><rect x="44" y="8" width="1.02" height="1.02"/><rect x="4" y="9" width="1.02" height="1.02"/><rect x="10" y="9" width="1.02" height="1.02"/><rect x="15" y="9" width="1.02" height="1.02"/><rect x="16" y="9" width="1.02" height="1.02"/><rect x="18" y="9" width="1.02" height="1.02"/><rect x="20" y="9" width="1.02" height="1.02"/><rect x="24" y="9" width="1.02" height="1.02"/><rect x="25" y="9" width="1.02" height="1.02"/><rect x="27" y="9" width="1.02" height="1.02"/><rect x="28" y="9" width="1.02" height="1.02"/><rect x="30" y="9" width="1.02" height="1.02"/><rect x="31" y="9" width="1.02" height="1.02"/><rect x="32" y="9" width="1.02" height="1.02"/><rect x="34" y="9" width="1.02" height="1.02"/><rect x="35" y="9" width="1.02" height="1.02"/><rect x="36" y="9" width="1.02" height="1.02"/><rect x="38" y="9" width="1.02" height="1.02"/><rect x="44" y="9" width="1.02" height="1.02"/><rect x="4" y="10" width="1.02" height="1.02"/><rect x="5" y="10" width="1.02" height="1.02"/><rect x="6" y="10" width="1.02" height="1.02"/><rect x="7" y="10" width="1.02" height="1.02"/><rect x="8" y="10" width="1.02" height="1.02"/><rect x="9" y="10" width="1.02" height="1.02"/><rect x="10" y="10" width="1.02" height="1.02"/><rect x="12" y="10" width="1.02" height="1.02"/><rect x="14" y="10" width="1.02" height="1.02"/><rect x="16" y="10" width="1.02" height="1.02"/><rect x="18" y="10" width="1.02" height="1.02"/><rect x="20" y="10" width="1.02" height="1.02"/><rect x="22" y="10" width="1.02" height="1.02"/><rect x="24" y="10" width="1.02" height="1.02"/><rect x="26" y="10" width="1.02" height="1.02"/><rect x="28" y="10" width="1.02" height="1.02"/><rect x="30" y="10" width="1.02" height="1.02"/><rect x="32" y="10" width="1.02" height="1.02"/><rect x="34" y="10" width="1.02" height="1.02"/><rect x="36" y="10" width="1.02" height="1.02"/><rect x="38" y="10" width="1.02" height="1.02"/><rect x="39" y="10" width="1.02" height="1.02"/><rect x="40" y="10" width="1.02" height="1.02"/><rect x="41" y="10" width="1.02" height="1.02"/><rect x="42" y="10" width="1.02" height="1.02"/><rect x="43" y="10" width="1.02" height="1.02"/><rect x="44" y="10" width="1.02" height="1.02"/><rect x="13" y="11" width="1.02" height="1.02"/><rect x="14" y="11" width="1.02" height="1.02"/><rect x="16" y="11" width="1.02" height="1.02"/><rect x="17" y="11" width="1.02" height="1.02"/><rect x="21" y="11" width="1.02" height="1.02"/><rect x="22" y="11" width="1.02" height="1.02"/><rect x="26" y="11" width="1.02" height="1.02"/><rect x="30" y="11" width="1.02" height="1.02"/><rect x="31" y="11" width="1.02" height="1.02"/><rect x="32" y="11" width="1.02" height="1.02"/><rect x="33" y="11" width="1.02" height="1.02"/><rect x="34" y="11" width="1.02" height="1.02"/><rect x="6" y="12" width="1.02" height="1.02"/><rect x="8" y="12" width="1.02" height="1.02"/><rect x="9" y="12" width="1.02" height="1.02"/><rect x="10" y="12" width="1.02" height="1.02"/><rect x="12" y="12" width="1.02" height="1.02"/><rect x="15" y="12" width="1.02" height="1.02"/><rect x="16" y="12" width="1.02" height="1.02"/><rect x="17" y="12" width="1.02" height="1.02"/><rect x="21" y="12" width="1.02" height="1.02"/><rect x="22" y="12" width="1.02" height="1.02"/><rect x="26" y="12" width="1.02" height="1.02"/><rect x="29" y="12" width="1.02" height="1.02"/><rect x="30" y="12" width="1.02" height="1.02"/><rect x="32" y="12" width="1.02" height="1.02"/><rect x="33" y="12" width="1.02" height="1.02"/><rect x="37" y="12" width="1.02" height="1.02"/><rect x="41" y="12" width="1.02" height="1.02"/><rect x="44" y="12" width="1.02" height="1.02"/><rect x="6" y="13" width="1.02" height="1.02"/><rect x="9" y="13" width="1.02" height="1.02"/><rect x="11" y="13" width="1.02" height="1.02"/><rect x="13" y="13" width="1.02" height="1.02"/><rect x="14" y="13" width="1.02" height="1.02"/><rect x="16" y="13" width="1.02" height="1.02"/><rect x="17" y="13" width="1.02" height="1.02"/><rect x="18" y="13" width="1.02" height="1.02"/><rect x="20" y="13" width="1.02" height="1.02"/><rect x="23" y="13" width="1.02" height="1.02"/><rect x="24" y="13" width="1.02" height="1.02"/><rect x="25" y="13" width="1.02" height="1.02"/><rect x="27" y="13" width="1.02" height="1.02"/><rect x="28" y="13" width="1.02" height="1.02"/><rect x="32" y="13" width="1.02" height="1.02"/><rect x="34" y="13" width="1.02" height="1.02"/><rect x="36" y="13" width="1.02" height="1.02"/><rect x="38" y="13" width="1.02" height="1.02"/><rect x="41" y="13" width="1.02" height="1.02"/><rect x="42" y="13" width="1.02" height="1.02"/><rect x="44" y="13" width="1.02" height="1.02"/><rect x="5" y="14" width="1.02" height="1.02"/><rect x="8" y="14" width="1.02" height="1.02"/><rect x="10" y="14" width="1.02" height="1.02"/><rect x="11" y="14" width="1.02" height="1.02"/><rect x="14" y="14" width="1.02" height="1.02"/><rect x="16" y="14" width="1.02" height="1.02"/><rect x="17" y="14" width="1.02" height="1.02"/><rect x="19" y="14" width="1.02" height="1.02"/><rect x="22" y="14" width="1.02" height="1.02"/><rect x="26" y="14" width="1.02" height="1.02"/><rect x="27" y="14" width="1.02" height="1.02"/><rect x="29" y="14" width="1.02" height="1.02"/><rect x="30" y="14" width="1.02" height="1.02"/><rect x="33" y="14" width="1.02" height="1.02"/><rect x="37" y="14" width="1.02" height="1.02"/><rect x="39" y="14" width="1.02" height="1.02"/><rect x="42" y="14" width="1.02" height="1.02"/><rect x="43" y="14" width="1.02" height="1.02"/><rect x="44" y="14" width="1.02" height="1.02"/><rect x="4" y="15" width="1.02" height="1.02"/><rect x="6" y="15" width="1.02" height="1.02"/><rect x="7" y="15" width="1.02" height="1.02"/><rect x="8" y="15" width="1.02" height="1.02"/><rect x="11" y="15" width="1.02" height="1.02"/><rect x="12" y="15" width="1.02" height="1.02"/><rect x="17" y="15" width="1.02" height="1.02"/><rect x="18" y="15" width="1.02" height="1.02"/><rect x="21" y="15" width="1.02" height="1.02"/><rect x="22" y="15" width="1.02" height="1.02"/><rect x="23" y="15" width="1.02" height="1.02"/><rect x="25" y="15" width="1.02" height="1.02"/><rect x="26" y="15" width="1.02" height="1.02"/><rect x="31" y="15" width="1.02" height="1.02"/><rect x="33" y="15" width="1.02" height="1.02"/><rect x="34" y="15" width="1.02" height="1.02"/><rect x="36" y="15" width="1.02" height="1.02"/><rect x="38" y="15" width="1.02" height="1.02"/><rect x="40" y="15" width="1.02" height="1.02"/><rect x="44" y="15" width="1.02" height="1.02"/><rect x="5" y="16" width="1.02" height="1.02"/><rect x="6" y="16" width="1.02" height="1.02"/><rect x="7" y="16" width="1.02" height="1.02"/><rect x="9" y="16" width="1.02" height="1.02"/><rect x="10" y="16" width="1.02" height="1.02"/><rect x="12" y="16" width="1.02" height="1.02"/><rect x="14" y="16" width="1.02" height="1.02"/><rect x="15" y="16" width="1.02" height="1.02"/><rect x="19" y="16" width="1.02" height="1.02"/><rect x="21" y="16" width="1.02" height="1.02"/><rect x="22" y="16" width="1.02" height="1.02"/><rect x="24" y="16" width="1.02" height="1.02"/><rect x="26" y="16" width="1.02" height="1.02"/><rect x="28" y="16" width="1.02" height="1.02"/><rect x="29" y="16" width="1.02" height="1.02"/><rect x="30" y="16" width="1.02" height="1.02"/><rect x="31" y="16" width="1.02" height="1.02"/><rect x="33" y="16" width="1.02" height="1.02"/><rect x="35" y="16" width="1.02" height="1.02"/><rect x="37" y="16" width="1.02" height="1.02"/><rect x="38" y="16" width="1.02" height="1.02"/><rect x="41" y="16" width="1.02" height="1.02"/><rect x="43" y="16" width="1.02" height="1.02"/><rect x="5" y="17" width="1.02" height="1.02"/><rect x="11" y="17" width="1.02" height="1.02"/><rect x="14" y="17" width="1.02" height="1.02"/><rect x="16" y="17" width="1.02" height="1.02"/><rect x="18" y="17" width="1.02" height="1.02"/><rect x="21" y="17" width="1.02" height="1.02"/><rect x="23" y="17" width="1.02" height="1.02"/><rect x="25" y="17" width="1.02" height="1.02"/><rect x="27" y="17" width="1.02" height="1.02"/><rect x="28" y="17" width="1.02" height="1.02"/><rect x="30" y="17" width="1.02" height="1.02"/><rect x="32" y="17" width="1.02" height="1.02"/><rect x="33" y="17" width="1.02" height="1.02"/><rect x="36" y="17" width="1.02" height="1.02"/><rect x="38" y="17" width="1.02" height="1.02"/><rect x="43" y="17" width="1.02" height="1.02"/><rect x="44" y="17" width="1.02" height="1.02"/><rect x="4" y="18" width="1.02" height="1.02"/><rect x="5" y="18" width="1.02" height="1.02"/><rect x="8" y="18" width="1.02" height="1.02"/><rect x="9" y="18" width="1.02" height="1.02"/><rect x="10" y="18" width="1.02" height="1.02"/><rect x="12" y="18" width="1.02" height="1.02"/><rect x="13" y="18" width="1.02" height="1.02"/><rect x="15" y="18" width="1.02" height="1.02"/><rect x="16" y="18" width="1.02" height="1.02"/><rect x="19" y="18" width="1.02" height="1.02"/><rect x="22" y="18" width="1.02" height="1.02"/><rect x="23" y="18" width="1.02" height="1.02"/><rect x="24" y="18" width="1.02" height="1.02"/><rect x="33" y="18" width="1.02" height="1.02"/><rect x="34" y="18" width="1.02" height="1.02"/><rect x="38" y="18" width="1.02" height="1.02"/><rect x="42" y="18" width="1.02" height="1.02"/><rect x="43" y="18" width="1.02" height="1.02"/><rect x="44" y="18" width="1.02" height="1.02"/><rect x="4" y="19" width="1.02" height="1.02"/><rect x="5" y="19" width="1.02" height="1.02"/><rect x="9" y="19" width="1.02" height="1.02"/><rect x="11" y="19" width="1.02" height="1.02"/><rect x="14" y="19" width="1.02" height="1.02"/><rect x="18" y="19" width="1.02" height="1.02"/><rect x="20" y="19" width="1.02" height="1.02"/><rect x="21" y="19" width="1.02" height="1.02"/><rect x="22" y="19" width="1.02" height="1.02"/><rect x="23" y="19" width="1.02" height="1.02"/><rect x="25" y="19" width="1.02" height="1.02"/><rect x="26" y="19" width="1.02" height="1.02"/><rect x="27" y="19" width="1.02" height="1.02"/><rect x="31" y="19" width="1.02" height="1.02"/><rect x="33" y="19" width="1.02" height="1.02"/><rect x="35" y="19" width="1.02" height="1.02"/><rect x="36" y="19" width="1.02" height="1.02"/><rect x="38" y="19" width="1.02" height="1.02"/><rect x="39" y="19" width="1.02" height="1.02"/><rect x="44" y="19" width="1.02" height="1.02"/><rect x="9" y="20" width="1.02" height="1.02"/><rect x="10" y="20" width="1.02" height="1.02"/><rect x="11" y="20" width="1.02" height="1.02"/><rect x="12" y="20" width="1.02" height="1.02"/><rect x="15" y="20" width="1.02" height="1.02"/><rect x="17" y="20" width="1.02" height="1.02"/><rect x="19" y="20" width="1.02" height="1.02"/><rect x="30" y="20" width="1.02" height="1.02"/><rect x="33" y="20" width="1.02" height="1.02"/><rect x="36" y="20" width="1.02" height="1.02"/><rect x="38" y="20" width="1.02" height="1.02"/><rect x="39" y="20" width="1.02" height="1.02"/><rect x="44" y="20" width="1.02" height="1.02"/><rect x="4" y="21" width="1.02" height="1.02"/><rect x="5" y="21" width="1.02" height="1.02"/><rect x="6" y="21" width="1.02" height="1.02"/><rect x="9" y="21" width="1.02" height="1.02"/><rect x="15" y="21" width="1.02" height="1.02"/><rect x="16" y="21" width="1.02" height="1.02"/><rect x="17" y="21" width="1.02" height="1.02"/><rect x="18" y="21" width="1.02" height="1.02"/><rect x="19" y="21" width="1.02" height="1.02"/><rect x="30" y="21" width="1.02" height="1.02"/><rect x="32" y="21" width="1.02" height="1.02"/><rect x="33" y="21" width="1.02" height="1.02"/><rect x="36" y="21" width="1.02" height="1.02"/><rect x="38" y="21" width="1.02" height="1.02"/><rect x="41" y="21" width="1.02" height="1.02"/><rect x="42" y="21" width="1.02" height="1.02"/><rect x="44" y="21" width="1.02" height="1.02"/><rect x="4" y="22" width="1.02" height="1.02"/><rect x="9" y="22" width="1.02" height="1.02"/><rect x="10" y="22" width="1.02" height="1.02"/><rect x="12" y="22" width="1.02" height="1.02"/><rect x="13" y="22" width="1.02" height="1.02"/><rect x="14" y="22" width="1.02" height="1.02"/><rect x="16" y="22" width="1.02" height="1.02"/><rect x="17" y="22" width="1.02" height="1.02"/><rect x="18" y="22" width="1.02" height="1.02"/><rect x="19" y="22" width="1.02" height="1.02"/><rect x="33" y="22" width="1.02" height="1.02"/><rect x="34" y="22" width="1.02" height="1.02"/><rect x="36" y="22" width="1.02" height="1.02"/><rect x="38" y="22" width="1.02" height="1.02"/><rect x="40" y="22" width="1.02" height="1.02"/><rect x="41" y="22" width="1.02" height="1.02"/><rect x="42" y="22" width="1.02" height="1.02"/><rect x="43" y="22" width="1.02" height="1.02"/><rect x="44" y="22" width="1.02" height="1.02"/><rect x="4" y="23" width="1.02" height="1.02"/><rect x="5" y="23" width="1.02" height="1.02"/><rect x="8" y="23" width="1.02" height="1.02"/><rect x="11" y="23" width="1.02" height="1.02"/><rect x="14" y="23" width="1.02" height="1.02"/><rect x="17" y="23" width="1.02" height="1.02"/><rect x="29" y="23" width="1.02" height="1.02"/><rect x="30" y="23" width="1.02" height="1.02"/><rect x="32" y="23" width="1.02" height="1.02"/><rect x="33" y="23" width="1.02" height="1.02"/><rect x="34" y="23" width="1.02" height="1.02"/><rect x="35" y="23" width="1.02" height="1.02"/><rect x="36" y="23" width="1.02" height="1.02"/><rect x="39" y="23" width="1.02" height="1.02"/><rect x="44" y="23" width="1.02" height="1.02"/><rect x="6" y="24" width="1.02" height="1.02"/><rect x="7" y="24" width="1.02" height="1.02"/><rect x="9" y="24" width="1.02" height="1.02"/><rect x="10" y="24" width="1.02" height="1.02"/><rect x="11" y="24" width="1.02" height="1.02"/><rect x="13" y="24" width="1.02" height="1.02"/><rect x="15" y="24" width="1.02" height="1.02"/><rect x="18" y="24" width="1.02" height="1.02"/><rect x="29" y="24" width="1.02" height="1.02"/><rect x="30" y="24" width="1.02" height="1.02"/><rect x="31" y="24" width="1.02" height="1.02"/><rect x="32" y="24" width="1.02" height="1.02"/><rect x="33" y="24" width="1.02" height="1.02"/><rect x="35" y="24" width="1.02" height="1.02"/><rect x="36" y="24" width="1.02" height="1.02"/><rect x="37" y="24" width="1.02" height="1.02"/><rect x="38" y="24" width="1.02" height="1.02"/><rect x="39" y="24" width="1.02" height="1.02"/><rect x="40" y="24" width="1.02" height="1.02"/><rect x="41" y="24" width="1.02" height="1.02"/><rect x="42" y="24" width="1.02" height="1.02"/><rect x="44" y="24" width="1.02" height="1.02"/><rect x="6" y="25" width="1.02" height="1.02"/><rect x="7" y="25" width="1.02" height="1.02"/><rect x="11" y="25" width="1.02" height="1.02"/><rect x="12" y="25" width="1.02" height="1.02"/><rect x="13" y="25" width="1.02" height="1.02"/><rect x="15" y="25" width="1.02" height="1.02"/><rect x="16" y="25" width="1.02" height="1.02"/><rect x="17" y="25" width="1.02" height="1.02"/><rect x="29" y="25" width="1.02" height="1.02"/><rect x="30" y="25" width="1.02" height="1.02"/><rect x="32" y="25" width="1.02" height="1.02"/><rect x="33" y="25" width="1.02" height="1.02"/><rect x="36" y="25" width="1.02" height="1.02"/><rect x="37" y="25" width="1.02" height="1.02"/><rect x="38" y="25" width="1.02" height="1.02"/><rect x="43" y="25" width="1.02" height="1.02"/><rect x="44" y="25" width="1.02" height="1.02"/><rect x="5" y="26" width="1.02" height="1.02"/><rect x="8" y="26" width="1.02" height="1.02"/><rect x="9" y="26" width="1.02" height="1.02"/><rect x="10" y="26" width="1.02" height="1.02"/><rect x="11" y="26" width="1.02" height="1.02"/><rect x="12" y="26" width="1.02" height="1.02"/><rect x="13" y="26" width="1.02" height="1.02"/><rect x="16" y="26" width="1.02" height="1.02"/><rect x="19" y="26" width="1.02" height="1.02"/><rect x="29" y="26" width="1.02" height="1.02"/><rect x="32" y="26" width="1.02" height="1.02"/><rect x="33" y="26" width="1.02" height="1.02"/><rect x="36" y="26" width="1.02" height="1.02"/><rect x="38" y="26" width="1.02" height="1.02"/><rect x="39" y="26" width="1.02" height="1.02"/><rect x="40" y="26" width="1.02" height="1.02"/><rect x="41" y="26" width="1.02" height="1.02"/><rect x="42" y="26" width="1.02" height="1.02"/><rect x="43" y="26" width="1.02" height="1.02"/><rect x="44" y="26" width="1.02" height="1.02"/><rect x="8" y="27" width="1.02" height="1.02"/><rect x="9" y="27" width="1.02" height="1.02"/><rect x="11" y="27" width="1.02" height="1.02"/><rect x="12" y="27" width="1.02" height="1.02"/><rect x="15" y="27" width="1.02" height="1.02"/><rect x="16" y="27" width="1.02" height="1.02"/><rect x="30" y="27" width="1.02" height="1.02"/><rect x="33" y="27" width="1.02" height="1.02"/><rect x="34" y="27" width="1.02" height="1.02"/><rect x="36" y="27" width="1.02" height="1.02"/><rect x="37" y="27" width="1.02" height="1.02"/><rect x="40" y="27" width="1.02" height="1.02"/><rect x="43" y="27" width="1.02" height="1.02"/><rect x="44" y="27" width="1.02" height="1.02"/><rect x="4" y="28" width="1.02" height="1.02"/><rect x="6" y="28" width="1.02" height="1.02"/><rect x="7" y="28" width="1.02" height="1.02"/><rect x="10" y="28" width="1.02" height="1.02"/><rect x="11" y="28" width="1.02" height="1.02"/><rect x="12" y="28" width="1.02" height="1.02"/><rect x="14" y="28" width="1.02" height="1.02"/><rect x="15" y="28" width="1.02" height="1.02"/><rect x="17" y="28" width="1.02" height="1.02"/><rect x="18" y="28" width="1.02" height="1.02"/><rect x="32" y="28" width="1.02" height="1.02"/><rect x="33" y="28" width="1.02" height="1.02"/><rect x="35" y="28" width="1.02" height="1.02"/><rect x="36" y="28" width="1.02" height="1.02"/><rect x="37" y="28" width="1.02" height="1.02"/><rect x="38" y="28" width="1.02" height="1.02"/><rect x="39" y="28" width="1.02" height="1.02"/><rect x="40" y="28" width="1.02" height="1.02"/><rect x="41" y="28" width="1.02" height="1.02"/><rect x="8" y="29" width="1.02" height="1.02"/><rect x="9" y="29" width="1.02" height="1.02"/><rect x="11" y="29" width="1.02" height="1.02"/><rect x="12" y="29" width="1.02" height="1.02"/><rect x="14" y="29" width="1.02" height="1.02"/><rect x="16" y="29" width="1.02" height="1.02"/><rect x="17" y="29" width="1.02" height="1.02"/><rect x="19" y="29" width="1.02" height="1.02"/><rect x="20" y="29" width="1.02" height="1.02"/><rect x="27" y="29" width="1.02" height="1.02"/><rect x="28" y="29" width="1.02" height="1.02"/><rect x="30" y="29" width="1.02" height="1.02"/><rect x="32" y="29" width="1.02" height="1.02"/><rect x="34" y="29" width="1.02" height="1.02"/><rect x="37" y="29" width="1.02" height="1.02"/><rect x="38" y="29" width="1.02" height="1.02"/><rect x="44" y="29" width="1.02" height="1.02"/><rect x="4" y="30" width="1.02" height="1.02"/><rect x="8" y="30" width="1.02" height="1.02"/><rect x="10" y="30" width="1.02" height="1.02"/><rect x="21" y="30" width="1.02" height="1.02"/><rect x="22" y="30" width="1.02" height="1.02"/><rect x="26" y="30" width="1.02" height="1.02"/><rect x="27" y="30" width="1.02" height="1.02"/><rect x="28" y="30" width="1.02" height="1.02"/><rect x="29" y="30" width="1.02" height="1.02"/><rect x="30" y="30" width="1.02" height="1.02"/><rect x="32" y="30" width="1.02" height="1.02"/><rect x="38" y="30" width="1.02" height="1.02"/><rect x="42" y="30" width="1.02" height="1.02"/><rect x="44" y="30" width="1.02" height="1.02"/><rect x="4" y="31" width="1.02" height="1.02"/><rect x="6" y="31" width="1.02" height="1.02"/><rect x="8" y="31" width="1.02" height="1.02"/><rect x="9" y="31" width="1.02" height="1.02"/><rect x="14" y="31" width="1.02" height="1.02"/><rect x="15" y="31" width="1.02" height="1.02"/><rect x="16" y="31" width="1.02" height="1.02"/><rect x="18" y="31" width="1.02" height="1.02"/><rect x="20" y="31" width="1.02" height="1.02"/><rect x="21" y="31" width="1.02" height="1.02"/><rect x="22" y="31" width="1.02" height="1.02"/><rect x="23" y="31" width="1.02" height="1.02"/><rect x="24" y="31" width="1.02" height="1.02"/><rect x="27" y="31" width="1.02" height="1.02"/><rect x="28" y="31" width="1.02" height="1.02"/><rect x="32" y="31" width="1.02" height="1.02"/><rect x="33" y="31" width="1.02" height="1.02"/><rect x="34" y="31" width="1.02" height="1.02"/><rect x="36" y="31" width="1.02" height="1.02"/><rect x="38" y="31" width="1.02" height="1.02"/><rect x="39" y="31" width="1.02" height="1.02"/><rect x="40" y="31" width="1.02" height="1.02"/><rect x="4" y="32" width="1.02" height="1.02"/><rect x="5" y="32" width="1.02" height="1.02"/><rect x="9" y="32" width="1.02" height="1.02"/><rect x="10" y="32" width="1.02" height="1.02"/><rect x="14" y="32" width="1.02" height="1.02"/><rect x="15" y="32" width="1.02" height="1.02"/><rect x="17" y="32" width="1.02" height="1.02"/><rect x="20" y="32" width="1.02" height="1.02"/><rect x="22" y="32" width="1.02" height="1.02"/><rect x="24" y="32" width="1.02" height="1.02"/><rect x="25" y="32" width="1.02" height="1.02"/><rect x="28" y="32" width="1.02" height="1.02"/><rect x="29" y="32" width="1.02" height="1.02"/><rect x="31" y="32" width="1.02" height="1.02"/><rect x="33" y="32" width="1.02" height="1.02"/><rect x="34" y="32" width="1.02" height="1.02"/><rect x="35" y="32" width="1.02" height="1.02"/><rect x="37" y="32" width="1.02" height="1.02"/><rect x="38" y="32" width="1.02" height="1.02"/><rect x="39" y="32" width="1.02" height="1.02"/><rect x="41" y="32" width="1.02" height="1.02"/><rect x="44" y="32" width="1.02" height="1.02"/><rect x="5" y="33" width="1.02" height="1.02"/><rect x="6" y="33" width="1.02" height="1.02"/><rect x="9" y="33" width="1.02" height="1.02"/><rect x="16" y="33" width="1.02" height="1.02"/><rect x="19" y="33" width="1.02" height="1.02"/><rect x="20" y="33" width="1.02" height="1.02"/><rect x="22" y="33" width="1.02" height="1.02"/><rect x="24" y="33" width="1.02" height="1.02"/><rect x="25" y="33" width="1.02" height="1.02"/><rect x="27" y="33" width="1.02" height="1.02"/><rect x="30" y="33" width="1.02" height="1.02"/><rect x="32" y="33" width="1.02" height="1.02"/><rect x="36" y="33" width="1.02" height="1.02"/><rect x="37" y="33" width="1.02" height="1.02"/><rect x="38" y="33" width="1.02" height="1.02"/><rect x="41" y="33" width="1.02" height="1.02"/><rect x="43" y="33" width="1.02" height="1.02"/><rect x="44" y="33" width="1.02" height="1.02"/><rect x="4" y="34" width="1.02" height="1.02"/><rect x="6" y="34" width="1.02" height="1.02"/><rect x="7" y="34" width="1.02" height="1.02"/><rect x="8" y="34" width="1.02" height="1.02"/><rect x="9" y="34" width="1.02" height="1.02"/><rect x="10" y="34" width="1.02" height="1.02"/><rect x="13" y="34" width="1.02" height="1.02"/><rect x="15" y="34" width="1.02" height="1.02"/><rect x="16" y="34" width="1.02" height="1.02"/><rect x="17" y="34" width="1.02" height="1.02"/><rect x="26" y="34" width="1.02" height="1.02"/><rect x="28" y="34" width="1.02" height="1.02"/><rect x="29" y="34" width="1.02" height="1.02"/><rect x="30" y="34" width="1.02" height="1.02"/><rect x="34" y="34" width="1.02" height="1.02"/><rect x="39" y="34" width="1.02" height="1.02"/><rect x="41" y="34" width="1.02" height="1.02"/><rect x="42" y="34" width="1.02" height="1.02"/><rect x="43" y="34" width="1.02" height="1.02"/><rect x="44" y="34" width="1.02" height="1.02"/><rect x="5" y="35" width="1.02" height="1.02"/><rect x="6" y="35" width="1.02" height="1.02"/><rect x="15" y="35" width="1.02" height="1.02"/><rect x="16" y="35" width="1.02" height="1.02"/><rect x="17" y="35" width="1.02" height="1.02"/><rect x="20" y="35" width="1.02" height="1.02"/><rect x="22" y="35" width="1.02" height="1.02"/><rect x="24" y="35" width="1.02" height="1.02"/><rect x="27" y="35" width="1.02" height="1.02"/><rect x="29" y="35" width="1.02" height="1.02"/><rect x="31" y="35" width="1.02" height="1.02"/><rect x="32" y="35" width="1.02" height="1.02"/><rect x="33" y="35" width="1.02" height="1.02"/><rect x="34" y="35" width="1.02" height="1.02"/><rect x="36" y="35" width="1.02" height="1.02"/><rect x="37" y="35" width="1.02" height="1.02"/><rect x="38" y="35" width="1.02" height="1.02"/><rect x="43" y="35" width="1.02" height="1.02"/><rect x="44" y="35" width="1.02" height="1.02"/><rect x="4" y="36" width="1.02" height="1.02"/><rect x="8" y="36" width="1.02" height="1.02"/><rect x="10" y="36" width="1.02" height="1.02"/><rect x="11" y="36" width="1.02" height="1.02"/><rect x="13" y="36" width="1.02" height="1.02"/><rect x="14" y="36" width="1.02" height="1.02"/><rect x="15" y="36" width="1.02" height="1.02"/><rect x="17" y="36" width="1.02" height="1.02"/><rect x="18" y="36" width="1.02" height="1.02"/><rect x="19" y="36" width="1.02" height="1.02"/><rect x="20" y="36" width="1.02" height="1.02"/><rect x="21" y="36" width="1.02" height="1.02"/><rect x="23" y="36" width="1.02" height="1.02"/><rect x="24" y="36" width="1.02" height="1.02"/><rect x="26" y="36" width="1.02" height="1.02"/><rect x="28" y="36" width="1.02" height="1.02"/><rect x="29" y="36" width="1.02" height="1.02"/><rect x="31" y="36" width="1.02" height="1.02"/><rect x="32" y="36" width="1.02" height="1.02"/><rect x="33" y="36" width="1.02" height="1.02"/><rect x="35" y="36" width="1.02" height="1.02"/><rect x="36" y="36" width="1.02" height="1.02"/><rect x="37" y="36" width="1.02" height="1.02"/><rect x="38" y="36" width="1.02" height="1.02"/><rect x="39" y="36" width="1.02" height="1.02"/><rect x="40" y="36" width="1.02" height="1.02"/><rect x="12" y="37" width="1.02" height="1.02"/><rect x="13" y="37" width="1.02" height="1.02"/><rect x="14" y="37" width="1.02" height="1.02"/><rect x="15" y="37" width="1.02" height="1.02"/><rect x="16" y="37" width="1.02" height="1.02"/><rect x="17" y="37" width="1.02" height="1.02"/><rect x="19" y="37" width="1.02" height="1.02"/><rect x="20" y="37" width="1.02" height="1.02"/><rect x="21" y="37" width="1.02" height="1.02"/><rect x="23" y="37" width="1.02" height="1.02"/><rect x="26" y="37" width="1.02" height="1.02"/><rect x="30" y="37" width="1.02" height="1.02"/><rect x="32" y="37" width="1.02" height="1.02"/><rect x="33" y="37" width="1.02" height="1.02"/><rect x="35" y="37" width="1.02" height="1.02"/><rect x="36" y="37" width="1.02" height="1.02"/><rect x="40" y="37" width="1.02" height="1.02"/><rect x="42" y="37" width="1.02" height="1.02"/><rect x="44" y="37" width="1.02" height="1.02"/><rect x="4" y="38" width="1.02" height="1.02"/><rect x="5" y="38" width="1.02" height="1.02"/><rect x="6" y="38" width="1.02" height="1.02"/><rect x="7" y="38" width="1.02" height="1.02"/><rect x="8" y="38" width="1.02" height="1.02"/><rect x="9" y="38" width="1.02" height="1.02"/><rect x="10" y="38" width="1.02" height="1.02"/><rect x="13" y="38" width="1.02" height="1.02"/><rect x="15" y="38" width="1.02" height="1.02"/><rect x="17" y="38" width="1.02" height="1.02"/><rect x="18" y="38" width="1.02" height="1.02"/><rect x="19" y="38" width="1.02" height="1.02"/><rect x="20" y="38" width="1.02" height="1.02"/><rect x="21" y="38" width="1.02" height="1.02"/><rect x="22" y="38" width="1.02" height="1.02"/><rect x="24" y="38" width="1.02" height="1.02"/><rect x="25" y="38" width="1.02" height="1.02"/><rect x="26" y="38" width="1.02" height="1.02"/><rect x="28" y="38" width="1.02" height="1.02"/><rect x="29" y="38" width="1.02" height="1.02"/><rect x="30" y="38" width="1.02" height="1.02"/><rect x="35" y="38" width="1.02" height="1.02"/><rect x="36" y="38" width="1.02" height="1.02"/><rect x="38" y="38" width="1.02" height="1.02"/><rect x="40" y="38" width="1.02" height="1.02"/><rect x="41" y="38" width="1.02" height="1.02"/><rect x="43" y="38" width="1.02" height="1.02"/><rect x="44" y="38" width="1.02" height="1.02"/><rect x="4" y="39" width="1.02" height="1.02"/><rect x="10" y="39" width="1.02" height="1.02"/><rect x="12" y="39" width="1.02" height="1.02"/><rect x="16" y="39" width="1.02" height="1.02"/><rect x="17" y="39" width="1.02" height="1.02"/><rect x="19" y="39" width="1.02" height="1.02"/><rect x="24" y="39" width="1.02" height="1.02"/><rect x="26" y="39" width="1.02" height="1.02"/><rect x="29" y="39" width="1.02" height="1.02"/><rect x="31" y="39" width="1.02" height="1.02"/><rect x="32" y="39" width="1.02" height="1.02"/><rect x="33" y="39" width="1.02" height="1.02"/><rect x="34" y="39" width="1.02" height="1.02"/><rect x="36" y="39" width="1.02" height="1.02"/><rect x="40" y="39" width="1.02" height="1.02"/><rect x="43" y="39" width="1.02" height="1.02"/><rect x="44" y="39" width="1.02" height="1.02"/><rect x="4" y="40" width="1.02" height="1.02"/><rect x="6" y="40" width="1.02" height="1.02"/><rect x="7" y="40" width="1.02" height="1.02"/><rect x="8" y="40" width="1.02" height="1.02"/><rect x="10" y="40" width="1.02" height="1.02"/><rect x="12" y="40" width="1.02" height="1.02"/><rect x="13" y="40" width="1.02" height="1.02"/><rect x="17" y="40" width="1.02" height="1.02"/><rect x="28" y="40" width="1.02" height="1.02"/><rect x="29" y="40" width="1.02" height="1.02"/><rect x="30" y="40" width="1.02" height="1.02"/><rect x="31" y="40" width="1.02" height="1.02"/><rect x="32" y="40" width="1.02" height="1.02"/><rect x="33" y="40" width="1.02" height="1.02"/><rect x="34" y="40" width="1.02" height="1.02"/><rect x="36" y="40" width="1.02" height="1.02"/><rect x="37" y="40" width="1.02" height="1.02"/><rect x="38" y="40" width="1.02" height="1.02"/><rect x="39" y="40" width="1.02" height="1.02"/><rect x="40" y="40" width="1.02" height="1.02"/><rect x="41" y="40" width="1.02" height="1.02"/><rect x="43" y="40" width="1.02" height="1.02"/><rect x="4" y="41" width="1.02" height="1.02"/><rect x="6" y="41" width="1.02" height="1.02"/><rect x="7" y="41" width="1.02" height="1.02"/><rect x="8" y="41" width="1.02" height="1.02"/><rect x="10" y="41" width="1.02" height="1.02"/><rect x="13" y="41" width="1.02" height="1.02"/><rect x="14" y="41" width="1.02" height="1.02"/><rect x="18" y="41" width="1.02" height="1.02"/><rect x="21" y="41" width="1.02" height="1.02"/><rect x="22" y="41" width="1.02" height="1.02"/><rect x="24" y="41" width="1.02" height="1.02"/><rect x="26" y="41" width="1.02" height="1.02"/><rect x="28" y="41" width="1.02" height="1.02"/><rect x="29" y="41" width="1.02" height="1.02"/><rect x="32" y="41" width="1.02" height="1.02"/><rect x="33" y="41" width="1.02" height="1.02"/><rect x="34" y="41" width="1.02" height="1.02"/><rect x="37" y="41" width="1.02" height="1.02"/><rect x="40" y="41" width="1.02" height="1.02"/><rect x="44" y="41" width="1.02" height="1.02"/><rect x="4" y="42" width="1.02" height="1.02"/><rect x="6" y="42" width="1.02" height="1.02"/><rect x="7" y="42" width="1.02" height="1.02"/><rect x="8" y="42" width="1.02" height="1.02"/><rect x="10" y="42" width="1.02" height="1.02"/><rect x="12" y="42" width="1.02" height="1.02"/><rect x="13" y="42" width="1.02" height="1.02"/><rect x="14" y="42" width="1.02" height="1.02"/><rect x="15" y="42" width="1.02" height="1.02"/><rect x="17" y="42" width="1.02" height="1.02"/><rect x="18" y="42" width="1.02" height="1.02"/><rect x="19" y="42" width="1.02" height="1.02"/><rect x="20" y="42" width="1.02" height="1.02"/><rect x="21" y="42" width="1.02" height="1.02"/><rect x="22" y="42" width="1.02" height="1.02"/><rect x="23" y="42" width="1.02" height="1.02"/><rect x="24" y="42" width="1.02" height="1.02"/><rect x="26" y="42" width="1.02" height="1.02"/><rect x="27" y="42" width="1.02" height="1.02"/><rect x="29" y="42" width="1.02" height="1.02"/><rect x="30" y="42" width="1.02" height="1.02"/><rect x="33" y="42" width="1.02" height="1.02"/><rect x="35" y="42" width="1.02" height="1.02"/><rect x="36" y="42" width="1.02" height="1.02"/><rect x="39" y="42" width="1.02" height="1.02"/><rect x="40" y="42" width="1.02" height="1.02"/><rect x="42" y="42" width="1.02" height="1.02"/><rect x="44" y="42" width="1.02" height="1.02"/><rect x="4" y="43" width="1.02" height="1.02"/><rect x="10" y="43" width="1.02" height="1.02"/><rect x="13" y="43" width="1.02" height="1.02"/><rect x="14" y="43" width="1.02" height="1.02"/><rect x="15" y="43" width="1.02" height="1.02"/><rect x="16" y="43" width="1.02" height="1.02"/><rect x="19" y="43" width="1.02" height="1.02"/><rect x="20" y="43" width="1.02" height="1.02"/><rect x="21" y="43" width="1.02" height="1.02"/><rect x="22" y="43" width="1.02" height="1.02"/><rect x="23" y="43" width="1.02" height="1.02"/><rect x="24" y="43" width="1.02" height="1.02"/><rect x="25" y="43" width="1.02" height="1.02"/><rect x="27" y="43" width="1.02" height="1.02"/><rect x="28" y="43" width="1.02" height="1.02"/><rect x="29" y="43" width="1.02" height="1.02"/><rect x="30" y="43" width="1.02" height="1.02"/><rect x="32" y="43" width="1.02" height="1.02"/><rect x="33" y="43" width="1.02" height="1.02"/><rect x="34" y="43" width="1.02" height="1.02"/><rect x="35" y="43" width="1.02" height="1.02"/><rect x="36" y="43" width="1.02" height="1.02"/><rect x="38" y="43" width="1.02" height="1.02"/><rect x="39" y="43" width="1.02" height="1.02"/><rect x="43" y="43" width="1.02" height="1.02"/><rect x="4" y="44" width="1.02" height="1.02"/><rect x="5" y="44" width="1.02" height="1.02"/><rect x="6" y="44" width="1.02" height="1.02"/><rect x="7" y="44" width="1.02" height="1.02"/><rect x="8" y="44" width="1.02" height="1.02"/><rect x="9" y="44" width="1.02" height="1.02"/><rect x="10" y="44" width="1.02" height="1.02"/><rect x="14" y="44" width="1.02" height="1.02"/><rect x="15" y="44" width="1.02" height="1.02"/><rect x="17" y="44" width="1.02" height="1.02"/><rect x="19" y="44" width="1.02" height="1.02"/><rect x="21" y="44" width="1.02" height="1.02"/><rect x="22" y="44" width="1.02" height="1.02"/><rect x="24" y="44" width="1.02" height="1.02"/><rect x="26" y="44" width="1.02" height="1.02"/><rect x="27" y="44" width="1.02" height="1.02"/><rect x="30" y="44" width="1.02" height="1.02"/><rect x="31" y="44" width="1.02" height="1.02"/><rect x="32" y="44" width="1.02" height="1.02"/><rect x="33" y="44" width="1.02" height="1.02"/><rect x="34" y="44" width="1.02" height="1.02"/><rect x="36" y="44" width="1.02" height="1.02"/><rect x="37" y="44" width="1.02" height="1.02"/><rect x="38" y="44" width="1.02" height="1.02"/><rect x="39" y="44" width="1.02" height="1.02"/><rect x="40" y="44" width="1.02" height="1.02"/><rect x="43" y="44" width="1.02" height="1.02"/><rect x="44" y="44" width="1.02" height="1.02"/></g>
<rect x="19.6" y="19.6" width="9.8" height="9.8" rx="1.2" fill="#fff"/>
<g transform="translate(20.45 20.45) scale(0.50625)" fill="#C13584"><path d="M8 0C5.829 0 5.556.01 4.703.048 3.85.088 3.269.222 2.76.42a3.9 3.9 0 0 0-1.417.923A3.9 3.9 0 0 0 .42 2.76C.222 3.268.087 3.85.048 4.7.01 5.555 0 5.827 0 8.001c0 2.172.01 2.444.048 3.297.04.852.174 1.433.372 1.942.205.526.478.972.923 1.417.444.445.89.719 1.416.923.51.198 1.09.333 1.942.372C5.555 15.99 5.827 16 8 16s2.444-.01 3.298-.048c.851-.04 1.434-.174 1.943-.372a3.9 3.9 0 0 0 1.416-.923c.445-.445.718-.891.923-1.417.197-.509.332-1.09.372-1.942C15.99 10.445 16 10.173 16 8s-.01-2.445-.048-3.299c-.04-.851-.175-1.433-.372-1.941a3.9 3.9 0 0 0-.923-1.417A3.9 3.9 0 0 0 13.24.42c-.51-.198-1.092-.333-1.943-.372C10.443.01 10.172 0 7.998 0zm-.717 1.442h.718c2.136 0 2.389.007 3.232.046.78.035 1.204.166 1.486.275.373.145.64.319.92.599s.453.546.598.92c.11.281.24.705.275 1.485.039.843.047 1.096.047 3.231s-.008 2.389-.047 3.232c-.035.78-.166 1.203-.275 1.485a2.5 2.5 0 0 1-.599.919c-.28.28-.546.453-.92.598-.28.11-.704.24-1.485.276-.843.038-1.096.047-3.232.047s-2.39-.009-3.233-.047c-.78-.036-1.203-.166-1.485-.276a2.5 2.5 0 0 1-.92-.598 2.5 2.5 0 0 1-.6-.92c-.109-.281-.24-.705-.275-1.485-.038-.843-.046-1.096-.046-3.233s.008-2.388.046-3.231c.036-.78.166-1.204.276-1.486.145-.373.319-.64.599-.92s.546-.453.92-.598c.282-.11.705-.24 1.485-.276.738-.034 1.024-.044 2.515-.045zm4.988 1.328a.96.96 0 1 0 0 1.92.96.96 0 0 0 0-1.92m-4.27 1.122a4.109 4.109 0 1 0 0 8.217 4.109 4.109 0 0 0 0-8.217m0 1.441a2.667 2.667 0 1 1 0 5.334 2.667 2.667 0 0 1 0-5.334"/></g>
</svg>